<?xml version="1.0" encoding="UTF-8" standalone="no"?>
<!DOCTYPE svg PUBLIC "-//W3C//DTD SVG 1.1//EN"
 "http://www.w3.org/Graphics/SVG/1.1/DTD/svg11.dtd">
<!-- Generated by graphviz version 2.38.0 (20140413.2041)
 -->
<!-- Title: %3 Pages: 1 -->
<svg width="1004pt" height="263pt"
 viewBox="0.00 0.00 1004.50 262.69" xmlns="http://www.w3.org/2000/svg" xmlns:xlink="http://www.w3.org/1999/xlink">
<g id="graph0" class="graph" transform="scale(1 1) rotate(0) translate(4 258.693)">
<title>%3</title>
<polygon fill="white" stroke="none" points="-4,4 -4,-258.693 1000.5,-258.693 1000.5,4 -4,4"/>
<!-- &#45;1 -->
<g id="node1" class="node"><title>&#45;1</title>
<polygon fill="lightgray" stroke="black" points="619.749,-254.693 595.749,-254.693 595.749,-236.693 619.749,-236.693 619.749,-254.693"/>
<text text-anchor="middle" x="607.749" y="-243.493" font-family="Times New Roman,serif" font-size="9.00">&#45;1</text>
</g>
<!-- 0 -->
<g id="node7" class="node"><title>0</title>
<ellipse fill="lightblue" stroke="black" cx="535.749" cy="-90.4472" rx="14.7" ry="14.7"/>
<text text-anchor="middle" x="535.749" y="-88.2472" font-family="Times New Roman,serif" font-size="9.00">0</text>
</g>
<!-- &#45;1&#45;&gt;0 -->
<g id="edge1" class="edge"><title>&#45;1&#45;&gt;0</title>
<path fill="none" stroke="green" stroke-width="0.887418" d="M600.094,-236.502C592.546,-228.068 581.104,-214.276 573.749,-200.693 558.642,-172.797 547.709,-137.727 541.551,-114.961"/>
<polygon fill="green" stroke="green" stroke-width="0.887418" points="544.902,-113.938 538.988,-105.148 538.129,-115.708 544.902,-113.938"/>
</g>
<!-- 1 -->
<g id="node8" class="node"><title>1</title>
<ellipse fill="lightblue" stroke="black" cx="305.749" cy="-14.8492" rx="14.7" ry="14.7"/>
<text text-anchor="middle" x="305.749" y="-12.6492" font-family="Times New Roman,serif" font-size="9.00">1</text>
</g>
<!-- &#45;1&#45;&gt;1 -->
<g id="edge2" class="edge"><title>&#45;1&#45;&gt;1</title>
<path fill="none" stroke="red" stroke-width="0.408973" d="M616.715,-236.632C625.025,-228.506 636.821,-215.129 641.749,-200.693 648.855,-179.874 649.955,-171.607 641.749,-151.196 622.109,-102.345 605.953,-90.9423 559.749,-65.6985 483.832,-24.2214 378.462,-16.9357 330.863,-15.8731"/>
<polygon fill="red" stroke="red" stroke-width="0.408973" points="330.884,-12.3732 320.833,-15.7249 330.78,-19.3724 330.884,-12.3732"/>
</g>
<!-- 2 -->
<g id="node9" class="node"><title>2</title>
<ellipse fill="lightblue" stroke="black" cx="793.749" cy="-14.8492" rx="14.7" ry="14.7"/>
<text text-anchor="middle" x="793.749" y="-12.6492" font-family="Times New Roman,serif" font-size="9.00">2</text>
</g>
<!-- &#45;1&#45;&gt;2 -->
<g id="edge3" class="edge"><title>&#45;1&#45;&gt;2</title>
<path fill="none" stroke="green" stroke-width="0.491621" stroke-dasharray="1,5" d="M619.968,-238.69C634.298,-231.223 658.195,-217.399 674.749,-200.693 724.843,-150.142 765.097,-75.1628 783.268,-38.1623"/>
<polygon fill="green" stroke="green" stroke-width="0.491621" points="786.599,-39.3122 787.797,-28.7853 780.296,-36.2675 786.599,-39.3122"/>
</g>
<!-- 3 -->
<g id="node10" class="node"><title>3</title>
<ellipse fill="lightblue" stroke="black" cx="435.749" cy="-175.945" rx="14.7" ry="14.7"/>
<text text-anchor="middle" x="435.749" y="-173.745" font-family="Times New Roman,serif" font-size="9.00">3</text>
</g>
<!-- &#45;1&#45;&gt;3 -->
<g id="edge4" class="edge"><title>&#45;1&#45;&gt;3</title>
<path fill="none" stroke="red" stroke-width="0.60934" d="M595.654,-239.929C567.277,-228.752 496.027,-200.688 458.964,-186.089"/>
<polygon fill="red" stroke="red" stroke-width="0.60934" points="460.067,-182.762 449.48,-182.353 457.502,-189.275 460.067,-182.762"/>
</g>
<!-- 2232 -->
<g id="node20" class="node"><title>2232</title>
<ellipse fill="white" stroke="black" cx="607.749" cy="-175.945" rx="25" ry="25"/>
<text text-anchor="middle" x="607.749" y="-173.745" font-family="Times New Roman,serif" font-size="9.00">2232</text>
</g>
<!-- &#45;1&#45;&gt;2232 -->
<g id="edge31" class="edge"><title>&#45;1&#45;&gt;2232</title>
<path fill="none" stroke="green" stroke-width="0.290674" d="M607.749,-236.656C607.749,-230.221 607.749,-220.723 607.749,-211.186"/>
<polygon fill="green" stroke="green" stroke-width="0.290674" points="611.249,-210.966 607.749,-200.966 604.249,-210.966 611.249,-210.966"/>
</g>
<!-- &#45;2 -->
<g id="node2" class="node"><title>&#45;2</title>
<polygon fill="lightgray" stroke="black" points="169.749,-254.693 145.749,-254.693 145.749,-236.693 169.749,-236.693 169.749,-254.693"/>
<text text-anchor="middle" x="157.749" y="-243.493" font-family="Times New Roman,serif" font-size="9.00">&#45;2</text>
</g>
<!-- &#45;2&#45;&gt;0 -->
<g id="edge5" class="edge"><title>&#45;2&#45;&gt;0</title>
<path fill="none" stroke="red" stroke-width="0.456837" stroke-dasharray="1,5" d="M169.877,-236.727C202.607,-215.273 291.245,-157.473 305.749,-151.196 364.316,-125.85 382.986,-131.253 444.749,-115.196 467.47,-109.289 493.374,-102.526 511.719,-97.7315"/>
<polygon fill="red" stroke="red" stroke-width="0.456837" points="512.775,-101.073 521.565,-95.1576 511.005,-94.3006 512.775,-101.073"/>
</g>
<!-- &#45;2&#45;&gt;1 -->
<g id="edge6" class="edge"><title>&#45;2&#45;&gt;1</title>
<path fill="none" stroke="red" stroke-width="0.293122" stroke-dasharray="1,5" d="M148.782,-236.632C140.473,-228.506 128.676,-215.129 123.749,-200.693 116.642,-179.874 115.242,-171.483 123.749,-151.196 152.868,-81.753 240.041,-40.533 282.286,-24.1208"/>
<polygon fill="red" stroke="red" stroke-width="0.293122" points="283.629,-27.3553 291.762,-20.5651 281.17,-20.8015 283.629,-27.3553"/>
</g>
<!-- &#45;2&#45;&gt;2 -->
<g id="edge7" class="edge"><title>&#45;2&#45;&gt;2</title>
<path fill="none" stroke="green" stroke-width="0.433357" d="M164.153,-236.687C171.092,-227.947 182.423,-213.487 191.749,-200.693 207.47,-179.126 203.425,-165.823 225.749,-151.196 296.177,-105.048 331.967,-142.114 411.749,-115.196 458.737,-99.3423 464.633,-81.1706 511.749,-65.6985 603.749,-35.4868 718.993,-22.3913 768.858,-17.8553"/>
<polygon fill="green" stroke="green" stroke-width="0.433357" points="769.353,-21.3254 779.011,-16.9693 768.745,-14.3519 769.353,-21.3254"/>
</g>
<!-- &#45;2&#45;&gt;3 -->
<g id="edge8" class="edge"><title>&#45;2&#45;&gt;3</title>
<path fill="none" stroke="green" stroke-width="0.249941" stroke-dasharray="1,5" d="M170.1,-242.909C203.406,-237.941 297.689,-222.843 373.749,-200.693 386.93,-196.855 401.267,-191.447 412.831,-186.761"/>
<polygon fill="green" stroke="green" stroke-width="0.249941" points="414.283,-189.949 422.181,-182.887 411.603,-183.482 414.283,-189.949"/>
</g>
<!-- 1807 -->
<g id="node16" class="node"><title>1807</title>
<ellipse fill="white" stroke="black" cx="24.7487" cy="-90.4472" rx="25" ry="25"/>
<text text-anchor="middle" x="24.7487" y="-88.2472" font-family="Times New Roman,serif" font-size="9.00">1807</text>
</g>
<!-- &#45;2&#45;&gt;1807 -->
<g id="edge28" class="edge"><title>&#45;2&#45;&gt;1807</title>
<path fill="none" stroke="red" stroke-width="0.643918" stroke-dasharray="1,5" d="M145.335,-245.19C117.074,-245.557 48.0488,-241.978 17.7487,-200.693 1.61209,-178.707 5.76563,-147.043 12.5325,-123.459"/>
<polygon fill="red" stroke="red" stroke-width="0.643918" points="15.8779,-124.488 15.541,-113.898 9.20073,-122.387 15.8779,-124.488"/>
</g>
<!-- 1649 -->
<g id="node17" class="node"><title>1649</title>
<ellipse fill="white" stroke="black" cx="157.749" cy="-175.945" rx="25" ry="25"/>
<text text-anchor="middle" x="157.749" y="-173.745" font-family="Times New Roman,serif" font-size="9.00">1649</text>
</g>
<!-- &#45;2&#45;&gt;1649 -->
<g id="edge22" class="edge"><title>&#45;2&#45;&gt;1649</title>
<path fill="none" stroke="green" stroke-width="0.402105" d="M157.749,-236.656C157.749,-230.221 157.749,-220.723 157.749,-211.186"/>
<polygon fill="green" stroke="green" stroke-width="0.402105" points="161.249,-210.966 157.749,-200.966 154.249,-210.966 161.249,-210.966"/>
</g>
<!-- 2545 -->
<g id="node18" class="node"><title>2545</title>
<ellipse fill="white" stroke="black" cx="51.7487" cy="-175.945" rx="25" ry="25"/>
<text text-anchor="middle" x="51.7487" y="-173.745" font-family="Times New Roman,serif" font-size="9.00">2545</text>
</g>
<!-- &#45;2&#45;&gt;2545 -->
<g id="edge37" class="edge"><title>&#45;2&#45;&gt;2545</title>
<path fill="none" stroke="green" stroke-width="0.471055" d="M145.589,-236.922C129.982,-226.947 102.386,-209.309 81.1459,-195.734"/>
<polygon fill="green" stroke="green" stroke-width="0.471055" points="82.7965,-192.635 72.4855,-190.198 79.0267,-198.533 82.7965,-192.635"/>
</g>
<!-- &#45;3 -->
<g id="node3" class="node"><title>&#45;3</title>
<polygon fill="lightgray" stroke="black" points="824.749,-254.693 800.749,-254.693 800.749,-236.693 824.749,-236.693 824.749,-254.693"/>
<text text-anchor="middle" x="812.749" y="-243.493" font-family="Times New Roman,serif" font-size="9.00">&#45;3</text>
</g>
<!-- &#45;3&#45;&gt;0 -->
<g id="edge9" class="edge"><title>&#45;3&#45;&gt;0</title>
<path fill="none" stroke="green" stroke-width="0.357787" stroke-dasharray="1,5" d="M800.629,-239.209C783.171,-231.211 750.046,-215.663 722.749,-200.693 685.757,-180.407 678.131,-172.557 641.749,-151.196 612.839,-134.222 579.038,-115.332 557.519,-103.425"/>
<polygon fill="green" stroke="green" stroke-width="0.357787" points="559.005,-100.247 548.559,-98.4769 555.621,-106.375 559.005,-100.247"/>
</g>
<!-- &#45;3&#45;&gt;2 -->
<g id="edge10" class="edge"><title>&#45;3&#45;&gt;2</title>
<path fill="none" stroke="red" stroke-width="0.140268" stroke-dasharray="1,5" d="M812.073,-236.549C809.455,-205.023 799.927,-90.2686 795.743,-39.8666"/>
<polygon fill="red" stroke="red" stroke-width="0.140268" points="799.228,-39.5456 794.913,-29.8695 792.252,-40.1249 799.228,-39.5456"/>
</g>
<!-- 1315 -->
<g id="node11" class="node"><title>1315</title>
<ellipse fill="white" stroke="black" cx="865.749" cy="-175.945" rx="25" ry="25"/>
<text text-anchor="middle" x="865.749" y="-173.745" font-family="Times New Roman,serif" font-size="9.00">1315</text>
</g>
<!-- &#45;3&#45;&gt;1315 -->
<g id="edge19" class="edge"><title>&#45;3&#45;&gt;1315</title>
<path fill="none" stroke="green" stroke-width="0.270573" d="M819.037,-236.656C825.364,-228.568 835.476,-215.642 844.676,-203.881"/>
<polygon fill="green" stroke="green" stroke-width="0.270573" points="847.437,-206.032 850.842,-196 841.924,-201.719 847.437,-206.032"/>
</g>
<!-- &#45;4 -->
<g id="node4" class="node"><title>&#45;4</title>
<polygon fill="lightgray" stroke="black" points="898.749,-254.693 874.749,-254.693 874.749,-236.693 898.749,-236.693 898.749,-254.693"/>
<text text-anchor="middle" x="886.749" y="-243.493" font-family="Times New Roman,serif" font-size="9.00">&#45;4</text>
</g>
<!-- &#45;4&#45;&gt;0 -->
<g id="edge11" class="edge"><title>&#45;4&#45;&gt;0</title>
<path fill="none" stroke="green" stroke-width="0.134387" stroke-dasharray="1,5" d="M874.504,-238.123C844.606,-222.201 765.302,-180.693 696.749,-151.196 648.769,-130.551 591.056,-110.18 559.403,-99.3772"/>
<polygon fill="green" stroke="green" stroke-width="0.134387" points="560.314,-95.9903 549.72,-96.0938 558.066,-102.62 560.314,-95.9903"/>
</g>
<!-- &#45;4&#45;&gt;3 -->
<g id="edge12" class="edge"><title>&#45;4&#45;&gt;3</title>
<path fill="none" stroke="green" stroke-width="0.473781" d="M874.546,-242.808C863.807,-241.16 847.747,-238.719 833.749,-236.693 718.293,-219.987 689.026,-218.588 573.749,-200.693 533.878,-194.504 487.702,-186.358 460.154,-181.394"/>
<polygon fill="green" stroke="green" stroke-width="0.473781" points="460.69,-177.934 450.227,-179.597 459.444,-184.822 460.69,-177.934"/>
</g>
<!-- 1477 -->
<g id="node12" class="node"><title>1477</title>
<ellipse fill="white" stroke="black" cx="971.749" cy="-90.4472" rx="25" ry="25"/>
<text text-anchor="middle" x="971.749" y="-88.2472" font-family="Times New Roman,serif" font-size="9.00">1477</text>
</g>
<!-- &#45;4&#45;&gt;1477 -->
<g id="edge21" class="edge"><title>&#45;4&#45;&gt;1477</title>
<path fill="none" stroke="red" stroke-width="0.38808" stroke-dasharray="1,5" d="M891.202,-236.411C900.003,-220.067 920.289,-182.531 937.749,-151.196 943.208,-141.399 949.24,-130.744 954.689,-121.181"/>
<polygon fill="red" stroke="red" stroke-width="0.38808" points="957.778,-122.83 959.698,-112.41 951.699,-119.358 957.778,-122.83"/>
</g>
<!-- 2439 -->
<g id="node14" class="node"><title>2439</title>
<ellipse fill="white" stroke="black" cx="971.749" cy="-175.945" rx="25" ry="25"/>
<text text-anchor="middle" x="971.749" y="-173.745" font-family="Times New Roman,serif" font-size="9.00">2439</text>
</g>
<!-- &#45;4&#45;&gt;2439 -->
<g id="edge35" class="edge"><title>&#45;4&#45;&gt;2439</title>
<path fill="none" stroke="green" stroke-width="0.512973" d="M896.833,-236.656C908.517,-227.343 928.248,-211.617 944.528,-198.641"/>
<polygon fill="green" stroke="green" stroke-width="0.512973" points="947.028,-201.124 952.666,-192.154 942.665,-195.65 947.028,-201.124"/>
</g>
<!-- &#45;5 -->
<g id="node5" class="node"><title>&#45;5</title>
<polygon fill="lightgray" stroke="black" points="490.749,-254.693 466.749,-254.693 466.749,-236.693 490.749,-236.693 490.749,-254.693"/>
<text text-anchor="middle" x="478.749" y="-243.493" font-family="Times New Roman,serif" font-size="9.00">&#45;5</text>
</g>
<!-- &#45;5&#45;&gt;0 -->
<g id="edge13" class="edge"><title>&#45;5&#45;&gt;0</title>
<path fill="none" stroke="red" stroke-width="0.338976" stroke-dasharray="1,5" d="M481.813,-236.454C490.28,-213.692 514.218,-149.335 527.171,-114.51"/>
<polygon fill="red" stroke="red" stroke-width="0.338976" points="530.603,-115.322 530.809,-104.729 524.042,-112.881 530.603,-115.322"/>
</g>
<!-- &#45;5&#45;&gt;1 -->
<g id="edge14" class="edge"><title>&#45;5&#45;&gt;1</title>
<path fill="none" stroke="red" stroke-width="0.289658" stroke-dasharray="1,5" d="M479.631,-236.488C481.075,-218.58 481.857,-175.644 459.749,-151.196 423.542,-111.158 383.128,-152.118 343.749,-115.196 322.563,-95.3326 313.066,-62.3819 308.892,-39.9196"/>
<polygon fill="red" stroke="red" stroke-width="0.289658" points="312.311,-39.1421 307.243,-29.8385 305.403,-40.2725 312.311,-39.1421"/>
</g>
<!-- &#45;5&#45;&gt;3 -->
<g id="edge15" class="edge"><title>&#45;5&#45;&gt;3</title>
<path fill="none" stroke="green" stroke-width="0.116463" d="M473.647,-236.656C467.574,-227.087 457.202,-210.746 448.843,-197.576"/>
<polygon fill="green" stroke="green" stroke-width="0.116463" points="451.769,-195.654 443.455,-189.086 445.859,-199.405 451.769,-195.654"/>
</g>
<!-- &#45;6 -->
<g id="node6" class="node"><title>&#45;6</title>
<polygon fill="lightgray" stroke="black" points="377.749,-254.693 353.749,-254.693 353.749,-236.693 377.749,-236.693 377.749,-254.693"/>
<text text-anchor="middle" x="365.749" y="-243.493" font-family="Times New Roman,serif" font-size="9.00">&#45;6</text>
</g>
<!-- &#45;6&#45;&gt;0 -->
<g id="edge16" class="edge"><title>&#45;6&#45;&gt;0</title>
<path fill="none" stroke="red" stroke-width="0.202691" stroke-dasharray="1,5" d="M367.773,-236.622C372.57,-218.982 386.189,-176.547 411.749,-151.196 440.058,-123.118 484.14,-106.26 511.409,-97.9229"/>
<polygon fill="red" stroke="red" stroke-width="0.202691" points="512.677,-101.199 521.303,-95.0472 510.724,-94.4773 512.677,-101.199"/>
</g>
<!-- &#45;6&#45;&gt;1 -->
<g id="edge17" class="edge"><title>&#45;6&#45;&gt;1</title>
<path fill="none" stroke="red" stroke-width="0.592862" stroke-dasharray="1,5" d="M353.599,-239.879C339.15,-233.41 315.733,-220.397 305.749,-200.693 279.08,-148.065 290.717,-75.6921 299.394,-39.0786"/>
<polygon fill="red" stroke="red" stroke-width="0.592862" points="302.8,-39.8857 301.837,-29.3347 296.01,-38.183 302.8,-39.8857"/>
</g>
<!-- &#45;6&#45;&gt;3 -->
<g id="edge18" class="edge"><title>&#45;6&#45;&gt;3</title>
<path fill="none" stroke="green" stroke-width="0.182647" d="M374.054,-236.656C384.81,-226.246 403.847,-207.821 417.938,-194.182"/>
<polygon fill="green" stroke="green" stroke-width="0.182647" points="420.423,-196.649 425.174,-187.179 415.554,-191.619 420.423,-196.649"/>
</g>
<!-- 2283 -->
<g id="node15" class="node"><title>2283</title>
<ellipse fill="white" stroke="black" cx="339.749" cy="-175.945" rx="25" ry="25"/>
<text text-anchor="middle" x="339.749" y="-173.745" font-family="Times New Roman,serif" font-size="9.00">2283</text>
</g>
<!-- &#45;6&#45;&gt;2283 -->
<g id="edge33" class="edge"><title>&#45;6&#45;&gt;2283</title>
<path fill="none" stroke="red" stroke-width="0.117281" d="M362.664,-236.656C359.966,-229.625 355.864,-218.938 351.874,-208.539"/>
<polygon fill="red" stroke="red" stroke-width="0.117281" points="355.134,-207.264 348.283,-199.182 348.598,-209.773 355.134,-207.264"/>
</g>
<!-- 1315&#45;&gt;2 -->
<g id="edge20" class="edge"><title>1315&#45;&gt;2</title>
<path fill="none" stroke="red" stroke-width="0.212985" stroke-dasharray="1,5" d="M880.809,-155.894C896.915,-133.028 917.846,-94.2078 899.749,-65.6985 882.011,-37.7557 843.985,-25.1943 818.635,-19.7506"/>
<polygon fill="red" stroke="red" stroke-width="0.212985" points="819.125,-16.2807 808.644,-17.8293 817.803,-23.1547 819.125,-16.2807"/>
</g>
<!-- 1315&#45;&gt;1477 -->
<g id="edge30" class="edge"><title>1315&#45;&gt;1477</title>
<path fill="none" stroke="green" stroke-width="0.128826" stroke-dasharray="1,5" d="M884.699,-160.017C901.403,-146.86 925.93,-127.539 944.696,-112.757"/>
<polygon fill="green" stroke="green" stroke-width="0.128826" points="946.915,-115.465 952.605,-106.527 942.583,-109.966 946.915,-115.465"/>
</g>
<!-- 1761 -->
<g id="node13" class="node"><title>1761</title>
<ellipse fill="white" stroke="black" cx="865.749" cy="-90.4472" rx="25" ry="25"/>
<text text-anchor="middle" x="865.749" y="-88.2472" font-family="Times New Roman,serif" font-size="9.00">1761</text>
</g>
<!-- 1315&#45;&gt;1761 -->
<g id="edge26" class="edge"><title>1315&#45;&gt;1761</title>
<path fill="none" stroke="green" stroke-width="0.176913" d="M865.749,-150.794C865.749,-142.85 865.749,-133.865 865.749,-125.335"/>
<polygon fill="green" stroke="green" stroke-width="0.176913" points="869.249,-125.255 865.749,-115.256 862.249,-125.256 869.249,-125.255"/>
</g>
<!-- 1761&#45;&gt;2 -->
<g id="edge27" class="edge"><title>1761&#45;&gt;2</title>
<path fill="none" stroke="red" stroke-width="0.183349" d="M848.686,-72.0055C837.333,-60.4009 822.468,-45.206 811.064,-33.5488"/>
<polygon fill="red" stroke="red" stroke-width="0.183349" points="813.302,-30.8318 803.807,-26.1311 808.299,-35.727 813.302,-30.8318"/>
</g>
<!-- 2439&#45;&gt;1477 -->
<g id="edge36" class="edge"><title>2439&#45;&gt;1477</title>
<path fill="none" stroke="green" stroke-width="0.30011" d="M971.749,-150.794C971.749,-142.85 971.749,-133.865 971.749,-125.335"/>
<polygon fill="green" stroke="green" stroke-width="0.30011" points="975.249,-125.255 971.749,-115.256 968.249,-125.256 975.249,-125.255"/>
</g>
<!-- 2283&#45;&gt;0 -->
<g id="edge34" class="edge"><title>2283&#45;&gt;0</title>
<path fill="none" stroke="green" stroke-width="0.411471" d="M359.997,-161.649C365.917,-158.028 372.483,-154.264 378.749,-151.196 424.402,-128.843 480.667,-109.231 511.932,-98.9899"/>
<polygon fill="green" stroke="green" stroke-width="0.411471" points="513.088,-102.294 521.524,-95.8855 510.933,-95.6346 513.088,-102.294"/>
</g>
<!-- 1649&#45;&gt;1 -->
<g id="edge23" class="edge"><title>1649&#45;&gt;1</title>
<path fill="none" stroke="green" stroke-width="0.238639" stroke-dasharray="1,5" d="M174.153,-157.311C202.479,-126.862 260.269,-64.738 288.9,-33.9609"/>
<polygon fill="green" stroke="green" stroke-width="0.238639" points="291.587,-36.2116 295.835,-26.5059 286.461,-31.4438 291.587,-36.2116"/>
</g>
<!-- 1715 -->
<g id="node19" class="node"><title>1715</title>
<ellipse fill="white" stroke="black" cx="377.749" cy="-90.4472" rx="25" ry="25"/>
<text text-anchor="middle" x="377.749" y="-88.2472" font-family="Times New Roman,serif" font-size="9.00">1715</text>
</g>
<!-- 1649&#45;&gt;1715 -->
<g id="edge24" class="edge"><title>1649&#45;&gt;1715</title>
<path fill="none" stroke="green" stroke-width="0.608464" d="M177.91,-161.466C183.829,-157.843 190.416,-154.123 196.749,-151.196 246.309,-128.292 307.168,-110.093 344.177,-100.048"/>
<polygon fill="green" stroke="green" stroke-width="0.608464" points="345.197,-103.399 353.953,-97.4341 343.388,-96.6361 345.197,-103.399"/>
</g>
<!-- 2545&#45;&gt;1807 -->
<g id="edge38" class="edge"><title>2545&#45;&gt;1807</title>
<path fill="none" stroke="red" stroke-width="0.485814" d="M44.3709,-152.129C41.5433,-143.384 38.2612,-133.235 35.1998,-123.767"/>
<polygon fill="red" stroke="red" stroke-width="0.485814" points="38.5247,-122.674 32.1177,-114.236 31.8643,-124.827 38.5247,-122.674"/>
</g>
<!-- 1715&#45;&gt;1 -->
<g id="edge25" class="edge"><title>1715&#45;&gt;1</title>
<path fill="none" stroke="red" stroke-width="0.562139" d="M360.686,-72.0055C349.333,-60.4009 334.468,-45.206 323.064,-33.5488"/>
<polygon fill="red" stroke="red" stroke-width="0.562139" points="325.302,-30.8318 315.807,-26.1311 320.299,-35.727 325.302,-30.8318"/>
</g>
<!-- 1715&#45;&gt;2 -->
<g id="edge29" class="edge"><title>1715&#45;&gt;2</title>
<path fill="none" stroke="green" stroke-width="0.196982" d="M397.592,-75.187C403.506,-71.5514 410.17,-68.0198 416.749,-65.6985 543.348,-21.0272 706.69,-15.8703 768.529,-15.6388"/>
<polygon fill="green" stroke="green" stroke-width="0.196982" points="768.86,-19.1389 778.862,-15.6445 768.864,-12.1389 768.86,-19.1389"/>
</g>
<!-- 2232&#45;&gt;0 -->
<g id="edge32" class="edge"><title>2232&#45;&gt;0</title>
<path fill="none" stroke="red" stroke-width="0.677757" d="M591.77,-156.414C579.967,-142.727 563.956,-124.159 552.073,-110.378"/>
<polygon fill="red" stroke="red" stroke-width="0.677757" points="554.463,-107.79 545.282,-102.503 549.162,-112.362 554.463,-107.79"/>
</g>
</g>
</svg>
