<?xml version="1.0" encoding="UTF-8" standalone="no"?>
<!DOCTYPE svg PUBLIC "-//W3C//DTD SVG 1.1//EN"
 "http://www.w3.org/Graphics/SVG/1.1/DTD/svg11.dtd">
<!-- Generated by graphviz version 2.38.0 (20140413.2041)
 -->
<!-- Title: %3 Pages: 1 -->
<svg width="2199pt" height="605pt"
 viewBox="0.00 0.00 2199.29 604.68" xmlns="http://www.w3.org/2000/svg" xmlns:xlink="http://www.w3.org/1999/xlink">
<g id="graph0" class="graph" transform="scale(1 1) rotate(0) translate(4 600.683)">
<title>%3</title>
<polygon fill="white" stroke="none" points="-4,4 -4,-600.683 2195.29,-600.683 2195.29,4 -4,4"/>
<!-- &#45;1 -->
<g id="node1" class="node"><title>&#45;1</title>
<polygon fill="lightgray" stroke="black" points="1295,-526.935 1271,-526.935 1271,-508.935 1295,-508.935 1295,-526.935"/>
<text text-anchor="middle" x="1283" y="-515.735" font-family="Times New Roman,serif" font-size="9.00">&#45;1</text>
</g>
<!-- 0 -->
<g id="node7" class="node"><title>0</title>
<ellipse fill="lightblue" stroke="black" cx="1655" cy="-14.8492" rx="14.7" ry="14.7"/>
<text text-anchor="middle" x="1655" y="-12.6492" font-family="Times New Roman,serif" font-size="9.00">0</text>
</g>
<!-- &#45;1&#45;&gt;0 -->
<g id="edge75" class="edge"><title>&#45;1&#45;&gt;0</title>
<path fill="none" stroke="green" stroke-width="0.423921" d="M1295.24,-512.406C1310.44,-506.969 1337.27,-497.986 1361,-493.186 1512.54,-462.529 1561.27,-508.815 1707,-457.186 1745,-443.725 1745.4,-422.215 1783,-407.688 1876.65,-371.509 1916.96,-418.072 2006,-371.688 2066,-340.432 2112,-330.095 2112,-262.442 2112,-262.442 2112,-262.442 2112,-174.945 2112,-107.292 2066.29,-96.3845 2006,-65.6985 1948.6,-36.4826 1750.43,-21.7181 1680.05,-17.3038"/>
<polygon fill="green" stroke="green" stroke-width="0.423921" points="1680.08,-13.7996 1669.89,-16.6835 1679.66,-20.7866 1680.08,-13.7996"/>
</g>
<!-- 1 -->
<g id="node8" class="node"><title>1</title>
<ellipse fill="lightblue" stroke="black" cx="722" cy="-261.442" rx="14.7" ry="14.7"/>
<text text-anchor="middle" x="722" y="-259.242" font-family="Times New Roman,serif" font-size="9.00">1</text>
</g>
<!-- &#45;1&#45;&gt;1 -->
<g id="edge76" class="edge"><title>&#45;1&#45;&gt;1</title>
<path fill="none" stroke="red" stroke-width="0.199466" d="M1270.74,-511.746C1257.82,-506.447 1236.78,-498.293 1218,-493.186 1132.11,-469.83 1106.2,-482.944 1021,-457.186 967.737,-441.083 958.526,-426.053 906,-407.688 848.598,-387.619 820.65,-410.695 774,-371.688 766.797,-365.666 744.292,-314.77 731.372,-284.617"/>
<polygon fill="red" stroke="red" stroke-width="0.199466" points="734.534,-283.109 727.394,-275.281 728.094,-285.853 734.534,-283.109"/>
</g>
<!-- 1305 -->
<g id="node13" class="node"><title>1305</title>
<ellipse fill="white" stroke="black" cx="1178" cy="-261.442" rx="25" ry="25"/>
<text text-anchor="middle" x="1178" y="-259.242" font-family="Times New Roman,serif" font-size="9.00">1305</text>
</g>
<!-- &#45;1&#45;&gt;1305 -->
<g id="edge103" class="edge"><title>&#45;1&#45;&gt;1305</title>
<path fill="none" stroke="green" stroke-width="0.246742" d="M1277.7,-508.662C1270.58,-497.341 1257.82,-476.249 1249,-457.186 1223.35,-401.757 1200.5,-334.225 1188.02,-295.002"/>
<polygon fill="green" stroke="green" stroke-width="0.246742" points="1191.34,-293.913 1185,-285.43 1184.67,-296.019 1191.34,-293.913"/>
</g>
<!-- 943 -->
<g id="node16" class="node"><title>943</title>
<ellipse fill="white" stroke="black" cx="1629" cy="-346.94" rx="21.4286" ry="21.4286"/>
<text text-anchor="middle" x="1629" y="-344.74" font-family="Times New Roman,serif" font-size="9.00">943</text>
</g>
<!-- &#45;1&#45;&gt;943 -->
<g id="edge96" class="edge"><title>&#45;1&#45;&gt;943</title>
<path fill="none" stroke="green" stroke-width="0.497772" d="M1295.01,-513.115C1318.52,-505.251 1371.59,-485.578 1409,-457.186 1432.21,-439.57 1427.79,-423.914 1452,-407.688 1497.73,-377.035 1560.63,-360.763 1597.83,-353.278"/>
<polygon fill="green" stroke="green" stroke-width="0.497772" points="1598.9,-356.638 1608.06,-351.313 1597.57,-349.763 1598.9,-356.638"/>
</g>
<!-- 1080 -->
<g id="node17" class="node"><title>1080</title>
<ellipse fill="white" stroke="black" cx="1283" cy="-432.437" rx="25" ry="25"/>
<text text-anchor="middle" x="1283" y="-430.237" font-family="Times New Roman,serif" font-size="9.00">1080</text>
</g>
<!-- &#45;1&#45;&gt;1080 -->
<g id="edge108" class="edge"><title>&#45;1&#45;&gt;1080</title>
<path fill="none" stroke="green" stroke-width="0.601721" d="M1283,-508.929C1283,-499.377 1283,-482.788 1283,-467.589"/>
<polygon fill="green" stroke="green" stroke-width="0.601721" points="1286.5,-467.392 1283,-457.392 1279.5,-467.392 1286.5,-467.392"/>
</g>
<!-- 85 -->
<g id="node22" class="node"><title>85</title>
<ellipse fill="white" stroke="black" cx="1550" cy="-432.437" rx="18.2703" ry="18.2703"/>
<text text-anchor="middle" x="1550" y="-430.237" font-family="Times New Roman,serif" font-size="9.00">85</text>
</g>
<!-- &#45;1&#45;&gt;85 -->
<g id="edge1" class="edge"><title>&#45;1&#45;&gt;85</title>
<path fill="none" stroke="green" stroke-width="0.755872" d="M1295.16,-513.226C1310.5,-508.547 1337.7,-500.257 1361,-493.186 1413.87,-477.139 1427.38,-474.065 1480,-457.186 1494.27,-452.608 1510.09,-447.265 1523.07,-442.807"/>
<polygon fill="green" stroke="green" stroke-width="0.755872" points="1524.48,-446.023 1532.79,-439.453 1522.2,-439.406 1524.48,-446.023"/>
</g>
<!-- 88 -->
<g id="node23" class="node"><title>88</title>
<ellipse fill="white" stroke="black" cx="445" cy="-346.94" rx="18.2703" ry="18.2703"/>
<text text-anchor="middle" x="445" y="-344.74" font-family="Times New Roman,serif" font-size="9.00">88</text>
</g>
<!-- &#45;1&#45;&gt;88 -->
<g id="edge2" class="edge"><title>&#45;1&#45;&gt;88</title>
<path fill="none" stroke="red" stroke-width="0.279604" d="M1270.86,-511.237C1258.04,-505.523 1237.08,-497.035 1218,-493.186 1136.11,-476.663 530.354,-511.639 467,-457.186 444.02,-437.434 440.924,-400.958 441.983,-375.616"/>
<polygon fill="red" stroke="red" stroke-width="0.279604" points="445.483,-375.726 442.646,-365.518 438.498,-375.267 445.483,-375.726"/>
</g>
<!-- 89 -->
<g id="node24" class="node"><title>89</title>
<ellipse fill="white" stroke="black" cx="1048" cy="-432.437" rx="18.2703" ry="18.2703"/>
<text text-anchor="middle" x="1048" y="-430.237" font-family="Times New Roman,serif" font-size="9.00">89</text>
</g>
<!-- &#45;1&#45;&gt;89 -->
<g id="edge3" class="edge"><title>&#45;1&#45;&gt;89</title>
<path fill="none" stroke="green" stroke-width="0.140454" d="M1270.56,-512.336C1257.48,-507.518 1236.32,-499.752 1218,-493.186 1167.56,-475.108 1108.51,-454.474 1074.96,-442.797"/>
<polygon fill="green" stroke="green" stroke-width="0.140454" points="1076,-439.452 1065.4,-439.474 1073.7,-446.064 1076,-439.452"/>
</g>
<!-- 90 -->
<g id="node25" class="node"><title>90</title>
<ellipse fill="white" stroke="black" cx="676" cy="-346.94" rx="18.2703" ry="18.2703"/>
<text text-anchor="middle" x="676" y="-344.74" font-family="Times New Roman,serif" font-size="9.00">90</text>
</g>
<!-- &#45;1&#45;&gt;90 -->
<g id="edge4" class="edge"><title>&#45;1&#45;&gt;90</title>
<path fill="none" stroke="red" stroke-width="0.190623" stroke-dasharray="1,5" d="M1270.79,-511.566C1257.91,-506.12 1236.9,-497.848 1218,-493.186 1101.32,-464.395 1065.88,-489.059 950,-457.186 895.954,-442.32 886.004,-428.606 834,-407.688 788.09,-389.222 734.057,-369.141 702.556,-357.597"/>
<polygon fill="red" stroke="red" stroke-width="0.190623" points="703.752,-354.308 693.159,-354.161 701.349,-360.882 703.752,-354.308"/>
</g>
<!-- 92 -->
<g id="node26" class="node"><title>92</title>
<ellipse fill="white" stroke="black" cx="1382" cy="-432.437" rx="18.2703" ry="18.2703"/>
<text text-anchor="middle" x="1382" y="-430.237" font-family="Times New Roman,serif" font-size="9.00">92</text>
</g>
<!-- &#45;1&#45;&gt;92 -->
<g id="edge5" class="edge"><title>&#45;1&#45;&gt;92</title>
<path fill="none" stroke="green" stroke-width="0.340645" d="M1292.49,-508.929C1308.04,-495.812 1339.33,-469.423 1360.48,-451.588"/>
<polygon fill="green" stroke="green" stroke-width="0.340645" points="1362.92,-454.112 1368.3,-444.99 1358.4,-448.761 1362.92,-454.112"/>
</g>
<!-- 95 -->
<g id="node28" class="node"><title>95</title>
<ellipse fill="white" stroke="black" cx="1838" cy="-346.94" rx="18.2703" ry="18.2703"/>
<text text-anchor="middle" x="1838" y="-344.74" font-family="Times New Roman,serif" font-size="9.00">95</text>
</g>
<!-- &#45;1&#45;&gt;95 -->
<g id="edge6" class="edge"><title>&#45;1&#45;&gt;95</title>
<path fill="none" stroke="green" stroke-width="0.235134" d="M1295.15,-513.425C1322.61,-505.284 1391.26,-483.77 1445,-457.186 1481.8,-438.98 1484.7,-422.49 1523,-407.688 1610.1,-374.023 1638.38,-389.72 1730,-371.688 1757.36,-366.304 1788.43,-359.386 1810.2,-354.406"/>
<polygon fill="green" stroke="green" stroke-width="0.235134" points="1811.13,-357.786 1820.09,-352.133 1809.56,-350.964 1811.13,-357.786"/>
</g>
<!-- 99 -->
<g id="node30" class="node"><title>99</title>
<ellipse fill="white" stroke="black" cx="1680" cy="-432.437" rx="18.2703" ry="18.2703"/>
<text text-anchor="middle" x="1680" y="-430.237" font-family="Times New Roman,serif" font-size="9.00">99</text>
</g>
<!-- &#45;1&#45;&gt;99 -->
<g id="edge7" class="edge"><title>&#45;1&#45;&gt;99</title>
<path fill="none" stroke="red" stroke-width="0.311194" d="M1295.03,-512.737C1310.23,-507.554 1337.3,-498.745 1361,-493.186 1455.75,-470.965 1481.54,-476.128 1577,-457.186 1602.6,-452.107 1631.54,-445.342 1652.21,-440.332"/>
<polygon fill="red" stroke="red" stroke-width="0.311194" points="1653.32,-443.663 1662.21,-437.89 1651.66,-436.863 1653.32,-443.663"/>
</g>
<!-- 100 -->
<g id="node31" class="node"><title>100</title>
<ellipse fill="white" stroke="black" cx="1181" cy="-432.437" rx="21.4286" ry="21.4286"/>
<text text-anchor="middle" x="1181" y="-430.237" font-family="Times New Roman,serif" font-size="9.00">100</text>
</g>
<!-- &#45;1&#45;&gt;100 -->
<g id="edge8" class="edge"><title>&#45;1&#45;&gt;100</title>
<path fill="none" stroke="green" stroke-width="0.397573" stroke-dasharray="1,5" d="M1273.22,-508.929C1257.66,-496.188 1226.8,-470.926 1205.07,-453.144"/>
<polygon fill="green" stroke="green" stroke-width="0.397573" points="1207.2,-450.363 1197.25,-446.737 1202.77,-455.779 1207.2,-450.363"/>
</g>
<!-- &#45;2 -->
<g id="node2" class="node"><title>&#45;2</title>
<polygon fill="lightgray" stroke="black" points="748,-526.935 724,-526.935 724,-508.935 748,-508.935 748,-526.935"/>
<text text-anchor="middle" x="736" y="-515.735" font-family="Times New Roman,serif" font-size="9.00">&#45;2</text>
</g>
<!-- &#45;2&#45;&gt;0 -->
<g id="edge77" class="edge"><title>&#45;2&#45;&gt;0</title>
<path fill="none" stroke="red" stroke-width="0.591265" stroke-dasharray="1,5" d="M723.978,-516.43C645.241,-513.033 204.942,-492.536 158,-457.186 116.186,-425.697 114,-400.284 114,-347.94 114,-347.94 114,-347.94 114,-174.945 114,-152.708 97.0511,-120.646 229,-65.6985 363.257,-9.79018 1451.14,-14.5065 1630.12,-15.6686"/>
<polygon fill="red" stroke="red" stroke-width="0.591265" points="1630.13,-19.1686 1640.15,-15.7364 1630.17,-12.1688 1630.13,-19.1686"/>
</g>
<!-- &#45;2&#45;&gt;1 -->
<g id="edge78" class="edge"><title>&#45;2&#45;&gt;1</title>
<path fill="none" stroke="red" stroke-width="0.218791" d="M723.953,-512.544C704.46,-504.742 666.433,-486.471 649,-457.186 629.456,-424.354 642.003,-409.845 640,-371.688 638.847,-349.72 630.026,-341.799 640,-322.191 652.297,-298.015 679.469,-281.306 699.172,-271.827"/>
<polygon fill="red" stroke="red" stroke-width="0.218791" points="700.746,-274.956 708.411,-267.641 697.858,-268.58 700.746,-274.956"/>
</g>
<!-- 2 -->
<g id="node9" class="node"><title>2</title>
<ellipse fill="lightblue" stroke="black" cx="1478" cy="-261.442" rx="14.7" ry="14.7"/>
<text text-anchor="middle" x="1478" y="-259.242" font-family="Times New Roman,serif" font-size="9.00">2</text>
</g>
<!-- &#45;2&#45;&gt;2 -->
<g id="edge79" class="edge"><title>&#45;2&#45;&gt;2</title>
<path fill="none" stroke="red" stroke-width="0.150845" d="M743.023,-508.811C761.236,-488.305 812.386,-434.198 867,-407.688 936.479,-373.964 962.5,-392.045 1037,-371.688 1103.5,-353.517 1117.43,-340.09 1184,-322.191 1282.64,-295.671 1402.68,-274.719 1453.45,-266.368"/>
<polygon fill="red" stroke="red" stroke-width="0.150845" points="1454.17,-269.798 1463.47,-264.736 1453.04,-262.889 1454.17,-269.798"/>
</g>
<!-- 3 -->
<g id="node10" class="node"><title>3</title>
<ellipse fill="lightblue" stroke="black" cx="1075" cy="-175.945" rx="14.7" ry="14.7"/>
<text text-anchor="middle" x="1075" y="-173.745" font-family="Times New Roman,serif" font-size="9.00">3</text>
</g>
<!-- &#45;2&#45;&gt;3 -->
<g id="edge80" class="edge"><title>&#45;2&#45;&gt;3</title>
<path fill="none" stroke="green" stroke-width="0.363499" d="M723.911,-516.508C648.489,-513.726 244.573,-497.02 209,-457.186 194.347,-440.777 199.08,-427.324 209,-407.688 266.762,-293.359 321.326,-282.363 441,-236.693 555.484,-193.004 947.075,-180.177 1050.03,-177.523"/>
<polygon fill="green" stroke="green" stroke-width="0.363499" points="1050.2,-181.02 1060.11,-177.272 1050.03,-174.022 1050.2,-181.02"/>
</g>
<!-- 1558 -->
<g id="node12" class="node"><title>1558</title>
<ellipse fill="white" stroke="black" cx="243" cy="-432.437" rx="25" ry="25"/>
<text text-anchor="middle" x="243" y="-430.237" font-family="Times New Roman,serif" font-size="9.00">1558</text>
</g>
<!-- &#45;2&#45;&gt;1558 -->
<g id="edge115" class="edge"><title>&#45;2&#45;&gt;1558</title>
<path fill="none" stroke="green" stroke-width="0.22749" d="M723.648,-517.15C669.603,-517.719 449.199,-516.125 282,-457.186 278.505,-455.954 274.985,-454.38 271.568,-452.63"/>
<polygon fill="green" stroke="green" stroke-width="0.22749" points="273.271,-449.572 262.843,-447.7 269.827,-455.666 273.271,-449.572"/>
</g>
<!-- &#45;2&#45;&gt;88 -->
<g id="edge9" class="edge"><title>&#45;2&#45;&gt;88</title>
<path fill="none" stroke="red" stroke-width="0.143301" stroke-dasharray="1,5" d="M723.788,-516.784C668.121,-515.815 439.258,-508.708 396,-457.186 373.184,-430.01 402.583,-390.502 424.707,-367.191"/>
<polygon fill="red" stroke="red" stroke-width="0.143301" points="427.318,-369.527 431.845,-359.948 422.333,-364.614 427.318,-369.527"/>
</g>
<!-- &#45;2&#45;&gt;89 -->
<g id="edge10" class="edge"><title>&#45;2&#45;&gt;89</title>
<path fill="none" stroke="green" stroke-width="0.186837" d="M748.231,-513.661C793.908,-501.437 955.211,-458.269 1020.38,-440.828"/>
<polygon fill="green" stroke="green" stroke-width="0.186837" points="1021.58,-444.131 1030.34,-438.165 1019.77,-437.369 1021.58,-444.131"/>
</g>
<!-- &#45;2&#45;&gt;90 -->
<g id="edge11" class="edge"><title>&#45;2&#45;&gt;90</title>
<path fill="none" stroke="red" stroke-width="0.327611" d="M735.755,-508.658C734.951,-489.967 731.524,-443.346 717,-407.688 711.383,-393.898 702.196,-380.088 693.94,-369.224"/>
<polygon fill="red" stroke="red" stroke-width="0.327611" points="696.549,-366.879 687.606,-361.199 691.055,-371.217 696.549,-366.879"/>
</g>
<!-- &#45;2&#45;&gt;92 -->
<g id="edge12" class="edge"><title>&#45;2&#45;&gt;92</title>
<path fill="none" stroke="green" stroke-width="0.325833" d="M748.356,-515.638C782.606,-512.046 881.657,-501.673 964,-493.186 1120.87,-477.017 1163.31,-492.519 1317,-457.186 1330.13,-454.167 1344.23,-449.236 1355.93,-444.646"/>
<polygon fill="green" stroke="green" stroke-width="0.325833" points="1357.56,-447.762 1365.51,-440.758 1354.93,-441.276 1357.56,-447.762"/>
</g>
<!-- &#45;2&#45;&gt;95 -->
<g id="edge13" class="edge"><title>&#45;2&#45;&gt;95</title>
<path fill="none" stroke="green" stroke-width="0.147629" d="M748.08,-510.726C786.627,-491.266 910.64,-431.35 1021,-407.688 1298.7,-348.15 1376.25,-398.384 1659,-371.688 1712.6,-366.628 1774.84,-357.669 1810.01,-352.32"/>
<polygon fill="green" stroke="green" stroke-width="0.147629" points="1810.66,-355.761 1820.01,-350.784 1809.6,-348.842 1810.66,-355.761"/>
</g>
<!-- 1378 -->
<g id="node29" class="node"><title>1378</title>
<ellipse fill="white" stroke="black" cx="683" cy="-432.437" rx="25" ry="25"/>
<text text-anchor="middle" x="683" y="-430.237" font-family="Times New Roman,serif" font-size="9.00">1378</text>
</g>
<!-- &#45;2&#45;&gt;1378 -->
<g id="edge106" class="edge"><title>&#45;2&#45;&gt;1378</title>
<path fill="none" stroke="green" stroke-width="0.39699" d="M730.918,-508.929C724.185,-498.321 711.942,-479.033 701.517,-462.609"/>
<polygon fill="green" stroke="green" stroke-width="0.39699" points="704.273,-460.42 695.959,-453.853 698.363,-464.171 704.273,-460.42"/>
</g>
<!-- &#45;2&#45;&gt;99 -->
<g id="edge14" class="edge"><title>&#45;2&#45;&gt;99</title>
<path fill="none" stroke="red" stroke-width="0.30445" d="M748.339,-515.451C782.545,-511.382 881.494,-499.902 964,-493.186 1236.01,-471.043 1306.86,-495.981 1577,-457.186 1602.95,-453.459 1632.01,-446.496 1652.64,-441.069"/>
<polygon fill="red" stroke="red" stroke-width="0.30445" points="1653.56,-444.445 1662.31,-438.473 1651.74,-437.685 1653.56,-444.445"/>
</g>
<!-- &#45;2&#45;&gt;100 -->
<g id="edge15" class="edge"><title>&#45;2&#45;&gt;100</title>
<path fill="none" stroke="red" stroke-width="0.174443" d="M748.048,-515.017C791.961,-507.983 947.544,-482.682 1075,-457.186 1100.47,-452.091 1129.22,-445.604 1150.34,-440.698"/>
<polygon fill="red" stroke="red" stroke-width="0.174443" points="1151.4,-444.044 1160.34,-438.361 1149.81,-437.228 1151.4,-444.044"/>
</g>
<!-- &#45;3 -->
<g id="node3" class="node"><title>&#45;3</title>
<polygon fill="lightgray" stroke="black" points="1103,-526.935 1079,-526.935 1079,-508.935 1103,-508.935 1103,-526.935"/>
<text text-anchor="middle" x="1091" y="-515.735" font-family="Times New Roman,serif" font-size="9.00">&#45;3</text>
</g>
<!-- &#45;3&#45;&gt;0 -->
<g id="edge81" class="edge"><title>&#45;3&#45;&gt;0</title>
<path fill="none" stroke="red" stroke-width="0.19111" stroke-dasharray="1,5" d="M1078.73,-510.563C1067.06,-504.852 1048.84,-496.83 1032,-493.186 942.54,-473.819 286.218,-506.333 209,-457.186 162.799,-427.78 152,-402.705 152,-347.94 152,-347.94 152,-347.94 152,-174.945 152,-19.8621 1433.78,-15.5318 1629.94,-15.7772"/>
<polygon fill="red" stroke="red" stroke-width="0.19111" points="1630.12,-19.2774 1640.12,-15.7956 1630.13,-12.2774 1630.12,-19.2774"/>
</g>
<!-- &#45;3&#45;&gt;1 -->
<g id="edge82" class="edge"><title>&#45;3&#45;&gt;1</title>
<path fill="none" stroke="green" stroke-width="0.162156" stroke-dasharray="1,5" d="M1078.98,-511.757C1042.32,-495.978 928.638,-447.159 834,-407.688 794.999,-391.422 773.202,-404.026 746,-371.688 725.837,-347.719 721.555,-310.586 721.145,-286.392"/>
<polygon fill="green" stroke="green" stroke-width="0.162156" points="724.646,-286.294 721.187,-276.28 717.646,-286.265 724.646,-286.294"/>
</g>
<!-- &#45;3&#45;&gt;2 -->
<g id="edge83" class="edge"><title>&#45;3&#45;&gt;2</title>
<path fill="none" stroke="red" stroke-width="0.367906" d="M1089.59,-508.854C1086.59,-488.91 1081.88,-436.856 1108,-407.688 1148.86,-362.072 1186.96,-400.493 1241,-371.688 1270.61,-355.907 1268.85,-338.797 1298,-322.191 1349.34,-292.948 1417.14,-275.345 1453.11,-267.431"/>
<polygon fill="red" stroke="red" stroke-width="0.367906" points="1454.14,-270.79 1463.19,-265.284 1452.68,-263.943 1454.14,-270.79"/>
</g>
<!-- &#45;3&#45;&gt;3 -->
<g id="edge84" class="edge"><title>&#45;3&#45;&gt;3</title>
<path fill="none" stroke="green" stroke-width="0.619156" d="M1078.72,-510.62C1067.04,-504.95 1048.81,-496.955 1032,-493.186 965.317,-478.231 464.888,-506.903 418,-457.186 376.835,-413.537 388.984,-374.706 418,-322.191 452.529,-259.699 486.636,-260.349 554,-236.693 647.595,-203.827 959.351,-183.621 1050.05,-178.336"/>
<polygon fill="green" stroke="green" stroke-width="0.619156" points="1050.43,-181.82 1060.21,-177.753 1050.03,-174.832 1050.43,-181.82"/>
</g>
<!-- &#45;3&#45;&gt;85 -->
<g id="edge16" class="edge"><title>&#45;3&#45;&gt;85</title>
<path fill="none" stroke="green" stroke-width="0.133373" stroke-dasharray="1,5" d="M1103.36,-510.924C1115.09,-505.469 1133.36,-497.621 1150,-493.186 1262.3,-463.264 1294.13,-474.839 1409,-457.186 1448.16,-451.167 1493.3,-443.422 1521.74,-438.443"/>
<polygon fill="green" stroke="green" stroke-width="0.133373" points="1522.53,-441.857 1531.77,-436.679 1521.32,-434.963 1522.53,-441.857"/>
</g>
<!-- &#45;3&#45;&gt;88 -->
<g id="edge17" class="edge"><title>&#45;3&#45;&gt;88</title>
<path fill="none" stroke="red" stroke-width="0.193639" d="M1078.72,-510.626C1067.04,-504.96 1048.8,-496.968 1032,-493.186 967.06,-478.568 479.632,-505.648 434,-457.186 413.097,-434.986 422.611,-397.876 432.691,-373.156"/>
<polygon fill="red" stroke="red" stroke-width="0.193639" points="436.019,-374.281 436.812,-363.716 429.604,-371.48 436.019,-374.281"/>
</g>
<!-- &#45;3&#45;&gt;89 -->
<g id="edge18" class="edge"><title>&#45;3&#45;&gt;89</title>
<path fill="none" stroke="red" stroke-width="0.42114" d="M1086.88,-508.929C1080.92,-497.357 1069.64,-475.454 1060.76,-458.21"/>
<polygon fill="red" stroke="red" stroke-width="0.42114" points="1063.81,-456.492 1056.12,-449.204 1057.59,-459.696 1063.81,-456.492"/>
</g>
<!-- &#45;3&#45;&gt;90 -->
<g id="edge19" class="edge"><title>&#45;3&#45;&gt;90</title>
<path fill="none" stroke="red" stroke-width="0.499029" d="M1078.55,-511.25C1066.75,-506.025 1048.44,-498.331 1032,-493.186 963.267,-471.671 941.66,-481.87 874,-457.186 796.038,-428.744 778.443,-415.562 708,-371.688 704.755,-369.668 701.421,-367.413 698.186,-365.119"/>
<polygon fill="red" stroke="red" stroke-width="0.499029" points="700.118,-362.195 689.988,-359.092 695.971,-367.835 700.118,-362.195"/>
</g>
<!-- &#45;3&#45;&gt;92 -->
<g id="edge20" class="edge"><title>&#45;3&#45;&gt;92</title>
<path fill="none" stroke="green" stroke-width="0.462862" stroke-dasharray="1,5" d="M1103.44,-511.206C1115.23,-505.949 1133.53,-498.235 1150,-493.186 1222.59,-470.929 1244.06,-478.264 1317,-457.186 1329.86,-453.471 1343.83,-448.494 1355.51,-444.055"/>
<polygon fill="green" stroke="green" stroke-width="0.462862" points="1357.05,-447.215 1365.11,-440.339 1354.52,-440.687 1357.05,-447.215"/>
</g>
<!-- &#45;3&#45;&gt;95 -->
<g id="edge21" class="edge"><title>&#45;3&#45;&gt;95</title>
<path fill="none" stroke="green" stroke-width="0.23171" stroke-dasharray="1,5" d="M1092.68,-508.812C1097.49,-487.819 1113.46,-431.73 1151,-407.688 1198.65,-377.169 1602.7,-377.412 1659,-371.688 1712.42,-366.257 1774.49,-357.462 1809.72,-352.236"/>
<polygon fill="green" stroke="green" stroke-width="0.23171" points="1810.38,-355.677 1819.75,-350.737 1809.34,-348.754 1810.38,-355.677"/>
</g>
<!-- &#45;3&#45;&gt;99 -->
<g id="edge22" class="edge"><title>&#45;3&#45;&gt;99</title>
<path fill="none" stroke="red" stroke-width="0.239037" stroke-dasharray="1,5" d="M1103.3,-510.718C1115,-505.117 1133.24,-497.17 1150,-493.186 1335.29,-449.138 1388.84,-486.655 1577,-457.186 1602.9,-453.129 1631.97,-446.204 1652.61,-440.876"/>
<polygon fill="red" stroke="red" stroke-width="0.239037" points="1653.5,-444.259 1662.29,-438.333 1651.73,-437.488 1653.5,-444.259"/>
</g>
<!-- &#45;3&#45;&gt;100 -->
<g id="edge23" class="edge"><title>&#45;3&#45;&gt;100</title>
<path fill="none" stroke="red" stroke-width="0.123694" d="M1099.63,-508.929C1113.01,-496.516 1139.2,-472.217 1158.26,-454.53"/>
<polygon fill="red" stroke="red" stroke-width="0.123694" points="1160.74,-457.011 1165.69,-447.644 1155.98,-451.88 1160.74,-457.011"/>
</g>
<!-- &#45;4 -->
<g id="node4" class="node"><title>&#45;4</title>
<polygon fill="lightgray" stroke="black" points="1637,-526.935 1613,-526.935 1613,-508.935 1637,-508.935 1637,-526.935"/>
<text text-anchor="middle" x="1625" y="-515.735" font-family="Times New Roman,serif" font-size="9.00">&#45;4</text>
</g>
<!-- &#45;4&#45;&gt;0 -->
<g id="edge85" class="edge"><title>&#45;4&#45;&gt;0</title>
<path fill="none" stroke="red" stroke-width="0.173452" stroke-dasharray="1,5" d="M1629.79,-508.858C1633.48,-503.427 1639.12,-496.649 1646,-493.186 1813.36,-408.985 1893.54,-530.392 2066,-457.186 2133,-428.746 2188,-420.724 2188,-347.94 2188,-347.94 2188,-347.94 2188,-174.945 2188,-125.233 2201.17,-98.7044 2164,-65.6985 2127.44,-33.2362 1776.99,-19.7323 1679.85,-16.5946"/>
<polygon fill="red" stroke="red" stroke-width="0.173452" points="1679.89,-13.094 1669.78,-16.2775 1679.67,-20.0906 1679.89,-13.094"/>
</g>
<!-- &#45;4&#45;&gt;1 -->
<g id="edge86" class="edge"><title>&#45;4&#45;&gt;1</title>
<path fill="none" stroke="red" stroke-width="0.751436" stroke-dasharray="1,5" d="M1626.8,-508.812C1630.81,-488.309 1638,-434.208 1609,-407.688 1556.44,-359.622 1032.95,-403.043 969,-371.688 942.835,-358.86 950.53,-337.922 926,-322.191 868.376,-285.237 787.154,-270.466 746.786,-265.133"/>
<polygon fill="red" stroke="red" stroke-width="0.751436" points="747.116,-261.647 736.762,-263.894 746.258,-268.594 747.116,-261.647"/>
</g>
<!-- &#45;4&#45;&gt;2 -->
<g id="edge87" class="edge"><title>&#45;4&#45;&gt;2</title>
<path fill="none" stroke="green" stroke-width="0.549307" d="M1630.19,-508.549C1633.92,-503.269 1639.44,-496.792 1646,-493.186 1734.74,-444.394 1805.29,-534.245 1871,-457.186 1884.97,-440.801 1879.65,-338.115 1865,-322.191 1816.08,-269.025 1581.62,-262.956 1503.44,-262.427"/>
<polygon fill="green" stroke="green" stroke-width="0.549307" points="1503.09,-258.925 1493.08,-262.384 1503.06,-265.925 1503.09,-258.925"/>
</g>
<!-- &#45;4&#45;&gt;3 -->
<g id="edge88" class="edge"><title>&#45;4&#45;&gt;3</title>
<path fill="none" stroke="green" stroke-width="0.376146" stroke-dasharray="1,5" d="M1630.18,-508.523C1633.9,-503.232 1639.42,-496.752 1646,-493.186 1742.38,-440.958 1818.37,-540.162 1890,-457.186 1901.74,-443.585 1899.94,-342.601 1886,-322.191 1794.37,-188.049 1226.87,-177.603 1100.1,-176.952"/>
<polygon fill="green" stroke="green" stroke-width="0.376146" points="1099.86,-173.451 1089.85,-176.917 1099.84,-180.451 1099.86,-173.451"/>
</g>
<!-- 1159 -->
<g id="node11" class="node"><title>1159</title>
<ellipse fill="white" stroke="black" cx="1625" cy="-175.945" rx="25" ry="25"/>
<text text-anchor="middle" x="1625" y="-173.745" font-family="Times New Roman,serif" font-size="9.00">1159</text>
</g>
<!-- &#45;4&#45;&gt;1159 -->
<g id="edge101" class="edge"><title>&#45;4&#45;&gt;1159</title>
<path fill="none" stroke="green" stroke-width="0.222777" stroke-dasharray="1,5" d="M1629.79,-508.872C1633.49,-503.447 1639.13,-496.671 1646,-493.186 1723.62,-453.816 1977.35,-521.495 2036,-457.186 2115.31,-370.221 2052.25,-332.037 1898,-236.693 1822.36,-189.94 1715.09,-179.506 1660.26,-177.352"/>
<polygon fill="green" stroke="green" stroke-width="0.222777" points="1660.12,-173.845 1650.02,-177.023 1659.9,-180.842 1660.12,-173.845"/>
</g>
<!-- &#45;4&#45;&gt;85 -->
<g id="edge24" class="edge"><title>&#45;4&#45;&gt;85</title>
<path fill="none" stroke="green" stroke-width="0.173889" d="M1617.81,-508.929C1606.62,-496.469 1584.67,-472.033 1568.77,-454.33"/>
<polygon fill="green" stroke="green" stroke-width="0.173889" points="1571.23,-451.837 1561.95,-446.737 1566.02,-456.515 1571.23,-451.837"/>
</g>
<!-- &#45;4&#45;&gt;88 -->
<g id="edge25" class="edge"><title>&#45;4&#45;&gt;88</title>
<path fill="none" stroke="green" stroke-width="0.15345" d="M1612.99,-515.398C1579.7,-511.194 1483.38,-499.399 1403,-493.186 1235.75,-480.259 810.683,-501.878 649,-457.186 577.961,-437.549 503.976,-389.955 467.748,-364.556"/>
<polygon fill="green" stroke="green" stroke-width="0.15345" points="469.555,-361.547 459.376,-358.608 465.501,-367.253 469.555,-361.547"/>
</g>
<!-- &#45;4&#45;&gt;89 -->
<g id="edge26" class="edge"><title>&#45;4&#45;&gt;89</title>
<path fill="none" stroke="green" stroke-width="0.210557" d="M1613,-515.589C1548.68,-508.352 1244.3,-473.778 1151,-457.186 1125.19,-452.595 1096.11,-445.732 1075.45,-440.563"/>
<polygon fill="green" stroke="green" stroke-width="0.210557" points="1076.3,-437.17 1065.75,-438.107 1074.58,-443.955 1076.3,-437.17"/>
</g>
<!-- &#45;4&#45;&gt;90 -->
<g id="edge27" class="edge"><title>&#45;4&#45;&gt;90</title>
<path fill="none" stroke="red" stroke-width="0.25542" d="M1624.24,-508.844C1621.78,-487.929 1612.07,-432.012 1577,-407.688 1518.39,-367.031 1007.14,-376.934 936,-371.688 851.706,-365.473 752.261,-355.712 704.463,-350.868"/>
<polygon fill="red" stroke="red" stroke-width="0.25542" points="704.568,-347.361 694.265,-349.83 703.859,-354.325 704.568,-347.361"/>
</g>
<!-- &#45;4&#45;&gt;92 -->
<g id="edge28" class="edge"><title>&#45;4&#45;&gt;92</title>
<path fill="none" stroke="green" stroke-width="0.445918" stroke-dasharray="1,5" d="M1612.95,-512.794C1575.6,-499.96 1461.15,-460.634 1408.73,-442.621"/>
<polygon fill="green" stroke="green" stroke-width="0.445918" points="1409.71,-439.256 1399.11,-439.317 1407.43,-445.877 1409.71,-439.256"/>
</g>
<!-- 1629 -->
<g id="node27" class="node"><title>1629</title>
<ellipse fill="white" stroke="black" cx="1817" cy="-432.437" rx="25" ry="25"/>
<text text-anchor="middle" x="1817" y="-430.237" font-family="Times New Roman,serif" font-size="9.00">1629</text>
</g>
<!-- &#45;4&#45;&gt;1629 -->
<g id="edge120" class="edge"><title>&#45;4&#45;&gt;1629</title>
<path fill="none" stroke="green" stroke-width="0.318789" d="M1630.33,-508.778C1634.11,-503.595 1639.64,-497.14 1646,-493.186 1697.63,-461.065 1722.15,-481.236 1778,-457.186 1781.4,-455.72 1784.87,-453.998 1788.25,-452.161"/>
<polygon fill="green" stroke="green" stroke-width="0.318789" points="1790.04,-455.172 1796.94,-447.132 1786.53,-449.114 1790.04,-455.172"/>
</g>
<!-- &#45;4&#45;&gt;95 -->
<g id="edge29" class="edge"><title>&#45;4&#45;&gt;95</title>
<path fill="none" stroke="red" stroke-width="0.166138" d="M1630.21,-508.582C1633.95,-503.316 1639.47,-496.842 1646,-493.186 1726.72,-448.003 1791.51,-528.028 1851,-457.186 1870.54,-433.916 1860.77,-397.381 1850.58,-373.052"/>
<polygon fill="red" stroke="red" stroke-width="0.166138" points="1853.7,-371.454 1846.42,-363.758 1847.31,-374.315 1853.7,-371.454"/>
</g>
<!-- &#45;4&#45;&gt;99 -->
<g id="edge30" class="edge"><title>&#45;4&#45;&gt;99</title>
<path fill="none" stroke="red" stroke-width="0.272676" d="M1630.27,-508.929C1638.1,-497.041 1653.12,-474.252 1664.6,-456.809"/>
<polygon fill="red" stroke="red" stroke-width="0.272676" points="1667.66,-458.537 1670.24,-448.261 1661.81,-454.687 1667.66,-458.537"/>
</g>
<!-- &#45;4&#45;&gt;100 -->
<g id="edge31" class="edge"><title>&#45;4&#45;&gt;100</title>
<path fill="none" stroke="green" stroke-width="0.466" d="M1612.83,-515.799C1565.54,-511.218 1389.69,-492.629 1249,-457.186 1235.93,-453.892 1221.8,-449.161 1209.84,-444.787"/>
<polygon fill="green" stroke="green" stroke-width="0.466" points="1210.95,-441.467 1200.36,-441.236 1208.49,-448.022 1210.95,-441.467"/>
</g>
<!-- &#45;5 -->
<g id="node5" class="node"><title>&#45;5</title>
<polygon fill="lightgray" stroke="black" points="1394,-526.935 1370,-526.935 1370,-508.935 1394,-508.935 1394,-526.935"/>
<text text-anchor="middle" x="1382" y="-515.735" font-family="Times New Roman,serif" font-size="9.00">&#45;5</text>
</g>
<!-- &#45;5&#45;&gt;0 -->
<g id="edge89" class="edge"><title>&#45;5&#45;&gt;0</title>
<path fill="none" stroke="green" stroke-width="0.426778" d="M1394.32,-515.66C1458.98,-508.928 1759.56,-477.064 1851,-457.186 1913.54,-443.591 2082.72,-418.826 2126,-371.688 2159.62,-335.072 2150,-312.154 2150,-262.442 2150,-262.442 2150,-262.442 2150,-174.945 2150,-125.233 2163.04,-98.8495 2126,-65.6985 2092.51,-35.7295 1772.74,-20.5927 1680.06,-16.8107"/>
<polygon fill="green" stroke="green" stroke-width="0.426778" points="1680.05,-13.3076 1669.92,-16.4056 1679.77,-20.302 1680.05,-13.3076"/>
</g>
<!-- &#45;5&#45;&gt;1 -->
<g id="edge90" class="edge"><title>&#45;5&#45;&gt;1</title>
<path fill="none" stroke="green" stroke-width="0.268963" stroke-dasharray="1,5" d="M1378.36,-508.811C1367.8,-485.617 1336.65,-419.976 1317,-407.688 1154.78,-306.232 1055.33,-464.477 888,-371.688 863.98,-358.369 872.334,-339.489 851,-322.191 818.701,-296.002 773.044,-278.405 745.599,-269.435"/>
<polygon fill="green" stroke="green" stroke-width="0.268963" points="746.628,-266.089 736.038,-266.419 744.522,-272.765 746.628,-266.089"/>
</g>
<!-- &#45;5&#45;&gt;2 -->
<g id="edge91" class="edge"><title>&#45;5&#45;&gt;2</title>
<path fill="none" stroke="red" stroke-width="0.359662" stroke-dasharray="1,5" d="M1387.79,-508.836C1409.44,-478.566 1484.36,-373.704 1485,-371.688 1494.07,-343.21 1489.36,-308.493 1484.37,-285.95"/>
<polygon fill="red" stroke="red" stroke-width="0.359662" points="1487.7,-284.844 1481.96,-275.942 1480.9,-286.483 1487.7,-284.844"/>
</g>
<!-- &#45;5&#45;&gt;1080 -->
<g id="edge98" class="edge"><title>&#45;5&#45;&gt;1080</title>
<path fill="none" stroke="green" stroke-width="0.16007" d="M1372.51,-508.929C1358.15,-496.821 1330.39,-473.404 1309.57,-455.846"/>
<polygon fill="green" stroke="green" stroke-width="0.16007" points="1311.59,-452.975 1301.69,-449.204 1307.08,-458.326 1311.59,-452.975"/>
</g>
<!-- 1097 -->
<g id="node20" class="node"><title>1097</title>
<ellipse fill="white" stroke="black" cx="501" cy="-432.437" rx="25" ry="25"/>
<text text-anchor="middle" x="501" y="-430.237" font-family="Times New Roman,serif" font-size="9.00">1097</text>
</g>
<!-- &#45;5&#45;&gt;1097 -->
<g id="edge99" class="edge"><title>&#45;5&#45;&gt;1097</title>
<path fill="none" stroke="red" stroke-width="0.35765" d="M1369.8,-512.184C1354.64,-506.522 1327.85,-497.313 1304,-493.186 1136.52,-464.21 702.523,-506.931 540,-457.186 536.456,-456.101 532.906,-454.621 529.47,-452.925"/>
<polygon fill="red" stroke="red" stroke-width="0.35765" points="531.165,-449.863 520.725,-448.058 527.761,-455.979 531.165,-449.863"/>
</g>
<!-- &#45;5&#45;&gt;85 -->
<g id="edge32" class="edge"><title>&#45;5&#45;&gt;85</title>
<path fill="none" stroke="green" stroke-width="0.299444" d="M1394.08,-512.676C1418.37,-503.89 1474.51,-482.444 1518,-457.186 1521.31,-455.266 1524.67,-453.069 1527.93,-450.803"/>
<polygon fill="green" stroke="green" stroke-width="0.299444" points="1530.13,-453.524 1536.13,-444.79 1526,-447.877 1530.13,-453.524"/>
</g>
<!-- &#45;5&#45;&gt;89 -->
<g id="edge33" class="edge"><title>&#45;5&#45;&gt;89</title>
<path fill="none" stroke="red" stroke-width="0.277454" stroke-dasharray="1,5" d="M1369.91,-512.982C1354.64,-508.051 1327.51,-499.502 1304,-493.186 1292.86,-490.193 1139.55,-454.639 1075.65,-439.839"/>
<polygon fill="red" stroke="red" stroke-width="0.277454" points="1076.38,-436.416 1065.85,-437.569 1074.8,-443.235 1076.38,-436.416"/>
</g>
<!-- &#45;5&#45;&gt;90 -->
<g id="edge34" class="edge"><title>&#45;5&#45;&gt;90</title>
<path fill="none" stroke="red" stroke-width="0.289521" d="M1369.74,-512.496C1354.52,-507.149 1327.67,-498.256 1304,-493.186 1180.02,-466.626 1143.32,-490.576 1021,-457.186 967.32,-442.532 958.636,-425.735 906,-407.688 868.303,-394.763 756.518,-367.319 703.934,-354.631"/>
<polygon fill="red" stroke="red" stroke-width="0.289521" points="704.494,-351.166 693.953,-352.228 702.856,-357.971 704.494,-351.166"/>
</g>
<!-- &#45;5&#45;&gt;92 -->
<g id="edge35" class="edge"><title>&#45;5&#45;&gt;92</title>
<path fill="none" stroke="green" stroke-width="0.146461" d="M1382,-508.929C1382,-498.08 1382,-478.152 1382,-461.494"/>
<polygon fill="green" stroke="green" stroke-width="0.146461" points="1385.5,-461.148 1382,-451.148 1378.5,-461.148 1385.5,-461.148"/>
</g>
<!-- &#45;5&#45;&gt;1629 -->
<g id="edge127" class="edge"><title>&#45;5&#45;&gt;1629</title>
<path fill="none" stroke="red" stroke-width="0.141682" d="M1394.39,-515.732C1453.18,-509.922 1704.32,-483.946 1778,-457.186 1781.48,-455.921 1785,-454.326 1788.41,-452.563"/>
<polygon fill="red" stroke="red" stroke-width="0.141682" points="1790.16,-455.597 1797.13,-447.62 1786.7,-449.507 1790.16,-455.597"/>
</g>
<!-- &#45;5&#45;&gt;95 -->
<g id="edge36" class="edge"><title>&#45;5&#45;&gt;95</title>
<path fill="none" stroke="green" stroke-width="0.651259" d="M1394.18,-516.881C1438.42,-516.248 1594.02,-510.159 1707,-457.186 1752.73,-435.745 1795.67,-394.388 1819.24,-369.165"/>
<polygon fill="green" stroke="green" stroke-width="0.651259" points="1822.01,-371.324 1826.19,-361.589 1816.85,-366.591 1822.01,-371.324"/>
</g>
<!-- &#45;5&#45;&gt;99 -->
<g id="edge37" class="edge"><title>&#45;5&#45;&gt;99</title>
<path fill="none" stroke="green" stroke-width="0.544269" d="M1394.05,-513.558C1437.9,-501.272 1589.67,-458.747 1652.47,-441.152"/>
<polygon fill="green" stroke="green" stroke-width="0.544269" points="1653.75,-444.427 1662.43,-438.359 1651.86,-437.687 1653.75,-444.427"/>
</g>
<!-- &#45;5&#45;&gt;100 -->
<g id="edge38" class="edge"><title>&#45;5&#45;&gt;100</title>
<path fill="none" stroke="green" stroke-width="0.189939" d="M1369.73,-511.837C1338.35,-498.802 1254.52,-463.977 1209.89,-445.438"/>
<polygon fill="green" stroke="green" stroke-width="0.189939" points="1211.05,-442.132 1200.48,-441.527 1208.37,-448.596 1211.05,-442.132"/>
</g>
<!-- &#45;6 -->
<g id="node6" class="node"><title>&#45;6</title>
<polygon fill="lightgray" stroke="black" points="1103,-596.683 1079,-596.683 1079,-578.683 1103,-578.683 1103,-596.683"/>
<text text-anchor="middle" x="1091" y="-585.483" font-family="Times New Roman,serif" font-size="9.00">&#45;6</text>
</g>
<!-- &#45;6&#45;&gt;0 -->
<g id="edge92" class="edge"><title>&#45;6&#45;&gt;0</title>
<path fill="none" stroke="green" stroke-width="0.284743" stroke-dasharray="1,5" d="M1078.73,-586.836C984.45,-587.895 374.195,-592.722 198,-542.683 101.317,-515.226 0,-533.943 0,-433.437 0,-433.437 0,-433.437 0,-174.945 0,-97.414 63.2975,-92.6308 136,-65.6985 281.635,-11.7486 1444.2,-14.8691 1630,-15.7183"/>
<polygon fill="green" stroke="green" stroke-width="0.284743" points="1630.13,-19.2188 1640.15,-15.7669 1630.16,-12.2189 1630.13,-19.2188"/>
</g>
<!-- &#45;6&#45;&gt;1 -->
<g id="edge93" class="edge"><title>&#45;6&#45;&gt;1</title>
<path fill="none" stroke="green" stroke-width="0.316146" stroke-dasharray="1,5" d="M1078.91,-586.369C1000.41,-584.258 562.329,-571.334 432,-542.683 328.33,-519.893 269.139,-544.651 209,-457.186 149.635,-370.847 324.545,-322.379 325,-322.191 457.117,-267.533 632.41,-262.106 696.855,-262.108"/>
<polygon fill="green" stroke="green" stroke-width="0.316146" points="696.881,-265.608 706.897,-262.154 696.913,-258.608 696.881,-265.608"/>
</g>
<!-- &#45;6&#45;&gt;2 -->
<g id="edge94" class="edge"><title>&#45;6&#45;&gt;2</title>
<path fill="none" stroke="red" stroke-width="0.163215" d="M1103.26,-586.446C1192.27,-584.657 1737.53,-572.53 1804,-542.683 1853.17,-520.606 1869.3,-506.95 1890,-457.186 1898.4,-436.992 1894.16,-331.201 1886,-322.191 1834.59,-265.438 1584.16,-261.814 1503.26,-262.155"/>
<polygon fill="red" stroke="red" stroke-width="0.163215" points="1502.98,-258.656 1493.01,-262.224 1503.03,-265.656 1502.98,-258.656"/>
</g>
<!-- &#45;6&#45;&gt;3 -->
<g id="edge95" class="edge"><title>&#45;6&#45;&gt;3</title>
<path fill="none" stroke="green" stroke-width="0.301566" stroke-dasharray="1,5" d="M1078.82,-586.774C980.069,-587.42 312.021,-590.016 238,-542.683 201.823,-519.55 203.301,-498.873 193,-457.186 165.977,-347.826 214.981,-282.267 318,-236.693 453.482,-176.759 934.542,-176.009 1049.97,-176.719"/>
<polygon fill="green" stroke="green" stroke-width="0.301566" points="1049.95,-180.219 1059.98,-176.79 1050,-173.219 1049.95,-180.219"/>
</g>
<!-- 1701 -->
<g id="node14" class="node"><title>1701</title>
<ellipse fill="white" stroke="black" cx="998" cy="-517.935" rx="25" ry="25"/>
<text text-anchor="middle" x="998" y="-515.735" font-family="Times New Roman,serif" font-size="9.00">1701</text>
</g>
<!-- &#45;6&#45;&gt;1701 -->
<g id="edge124" class="edge"><title>&#45;6&#45;&gt;1701</title>
<path fill="none" stroke="green" stroke-width="0.591627" d="M1079.97,-578.646C1066.82,-569.067 1044.35,-552.702 1026.26,-539.525"/>
<polygon fill="green" stroke="green" stroke-width="0.591627" points="1027.94,-536.415 1017.8,-533.355 1023.82,-542.073 1027.94,-536.415"/>
</g>
<!-- 1449 -->
<g id="node15" class="node"><title>1449</title>
<ellipse fill="white" stroke="black" cx="1184" cy="-517.935" rx="25" ry="25"/>
<text text-anchor="middle" x="1184" y="-515.735" font-family="Times New Roman,serif" font-size="9.00">1449</text>
</g>
<!-- &#45;6&#45;&gt;1449 -->
<g id="edge109" class="edge"><title>&#45;6&#45;&gt;1449</title>
<path fill="none" stroke="green" stroke-width="0.38993" d="M1102.03,-578.646C1115.18,-569.067 1137.65,-552.702 1155.74,-539.525"/>
<polygon fill="green" stroke="green" stroke-width="0.38993" points="1158.18,-542.073 1164.2,-533.355 1154.06,-536.415 1158.18,-542.073"/>
</g>
<!-- &#45;6&#45;&gt;85 -->
<g id="edge39" class="edge"><title>&#45;6&#45;&gt;85</title>
<path fill="none" stroke="green" stroke-width="0.150379" d="M1103.17,-587.077C1146.05,-588.034 1293.44,-587.667 1403,-542.683 1454.18,-521.669 1503.7,-478.752 1530.17,-453.414"/>
<polygon fill="green" stroke="green" stroke-width="0.150379" points="1532.9,-455.643 1537.62,-446.159 1528.01,-450.627 1532.9,-455.643"/>
</g>
<!-- &#45;6&#45;&gt;88 -->
<g id="edge40" class="edge"><title>&#45;6&#45;&gt;88</title>
<path fill="none" stroke="red" stroke-width="0.290682" d="M1078.99,-586.592C992.926,-585.65 470.904,-575.085 384,-457.186 370.947,-439.478 375.476,-427.969 384,-407.688 391.658,-389.468 407.885,-374.019 421.679,-363.398"/>
<polygon fill="red" stroke="red" stroke-width="0.290682" points="423.843,-366.152 429.854,-357.427 419.714,-360.499 423.843,-366.152"/>
</g>
<!-- &#45;6&#45;&gt;89 -->
<g id="edge41" class="edge"><title>&#45;6&#45;&gt;89</title>
<path fill="none" stroke="red" stroke-width="0.410475" d="M1086.34,-578.504C1081.6,-569.856 1074.34,-555.691 1070,-542.683 1060.95,-515.556 1055.02,-483.334 1051.62,-460.945"/>
<polygon fill="red" stroke="red" stroke-width="0.410475" points="1055.05,-460.204 1050.15,-450.809 1048.12,-461.207 1055.05,-460.204"/>
</g>
<!-- &#45;6&#45;&gt;90 -->
<g id="edge42" class="edge"><title>&#45;6&#45;&gt;90</title>
<path fill="none" stroke="red" stroke-width="0.452189" d="M1078.63,-586.506C1021.04,-585.491 779.35,-579.097 715,-542.683 673.221,-519.042 664.496,-502.62 649,-457.186 639.221,-428.515 651.193,-394.498 662.155,-372.129"/>
<polygon fill="red" stroke="red" stroke-width="0.452189" points="665.383,-373.507 666.881,-363.018 659.169,-370.283 665.383,-373.507"/>
</g>
<!-- &#45;6&#45;&gt;92 -->
<g id="edge43" class="edge"><title>&#45;6&#45;&gt;92</title>
<path fill="none" stroke="green" stroke-width="0.405973" stroke-dasharray="1,5" d="M1103.22,-587.133C1137.75,-587.823 1237.87,-585.749 1304,-542.683 1335.38,-522.25 1358.09,-484.432 1370.66,-459.101"/>
<polygon fill="green" stroke="green" stroke-width="0.405973" points="1373.98,-460.275 1375.12,-449.743 1367.66,-457.261 1373.98,-460.275"/>
</g>
<!-- &#45;6&#45;&gt;95 -->
<g id="edge44" class="edge"><title>&#45;6&#45;&gt;95</title>
<path fill="none" stroke="red" stroke-width="0.22915" d="M1103.11,-586.646C1180.76,-586.285 1609.38,-582.494 1733,-542.683 1801.68,-520.567 1835.9,-520.223 1871,-457.186 1886.49,-429.373 1869.53,-393.439 1854.76,-370.533"/>
<polygon fill="red" stroke="red" stroke-width="0.22915" points="1857.59,-368.461 1849.08,-362.15 1851.79,-372.39 1857.59,-368.461"/>
</g>
<!-- &#45;6&#45;&gt;99 -->
<g id="edge45" class="edge"><title>&#45;6&#45;&gt;99</title>
<path fill="none" stroke="red" stroke-width="0.422385" d="M1103.05,-586.792C1186.04,-587.422 1670.76,-589.089 1714,-542.683 1736.55,-518.481 1715.37,-479.531 1697.81,-455.266"/>
<polygon fill="red" stroke="red" stroke-width="0.422385" points="1700.42,-452.911 1691.6,-447.046 1694.84,-457.133 1700.42,-452.911"/>
</g>
<!-- &#45;6&#45;&gt;100 -->
<g id="edge46" class="edge"><title>&#45;6&#45;&gt;100</title>
<path fill="none" stroke="green" stroke-width="0.277249" d="M1095.84,-578.444C1108.78,-556.415 1144.59,-495.426 1165.43,-459.953"/>
<polygon fill="green" stroke="green" stroke-width="0.277249" points="1168.58,-461.496 1170.63,-451.101 1162.54,-457.951 1168.58,-461.496"/>
</g>
<!-- 1658 -->
<g id="node32" class="node"><title>1658</title>
<ellipse fill="white" stroke="black" cx="1168" cy="-90.4472" rx="25" ry="25"/>
<text text-anchor="middle" x="1168" y="-88.2472" font-family="Times New Roman,serif" font-size="9.00">1658</text>
</g>
<!-- 3&#45;&gt;1658 -->
<g id="edge130" class="edge"><title>3&#45;&gt;1658</title>
<path fill="none" stroke="green" stroke-width="0.301524" d="M1085.67,-165.366C1099.36,-153.073 1123.57,-131.335 1142.21,-114.604"/>
<polygon fill="green" stroke="green" stroke-width="0.301524" points="1144.7,-117.067 1149.81,-107.782 1140.03,-111.858 1144.7,-117.067"/>
</g>
<!-- 1159&#45;&gt;0 -->
<g id="edge102" class="edge"><title>1159&#45;&gt;0</title>
<path fill="none" stroke="red" stroke-width="0.208839" stroke-dasharray="1,5" d="M1629.43,-151.47C1635.09,-121.447 1644.84,-69.7421 1650.52,-39.5913"/>
<polygon fill="red" stroke="red" stroke-width="0.208839" points="1654,-40.0138 1652.42,-29.5384 1647.13,-38.7166 1654,-40.0138"/>
</g>
<!-- 1159&#45;&gt;1658 -->
<g id="edge122" class="edge"><title>1159&#45;&gt;1658</title>
<path fill="none" stroke="green" stroke-width="0.375816" d="M1600.75,-170.514C1524.68,-156.616 1290.56,-113.84 1202.22,-97.6994"/>
<polygon fill="green" stroke="green" stroke-width="0.375816" points="1202.66,-94.2212 1192.19,-95.8668 1201.4,-101.107 1202.66,-94.2212"/>
</g>
<!-- 1558&#45;&gt;1 -->
<g id="edge117" class="edge"><title>1558&#45;&gt;1</title>
<path fill="none" stroke="green" stroke-width="0.391534" stroke-dasharray="1,5" d="M262.196,-416.117C293.116,-392.242 356.704,-346.394 418,-322.191 516.784,-283.185 644.037,-268.805 697.074,-264.267"/>
<polygon fill="green" stroke="green" stroke-width="0.391534" points="697.544,-267.741 707.228,-263.443 696.977,-260.764 697.544,-267.741"/>
</g>
<!-- 1558&#45;&gt;88 -->
<g id="edge116" class="edge"><title>1558&#45;&gt;88</title>
<path fill="none" stroke="red" stroke-width="0.220372" d="M266.337,-423.857C297.717,-413.397 355.002,-393.358 402,-371.688 408.099,-368.876 414.515,-365.547 420.475,-362.285"/>
<polygon fill="red" stroke="red" stroke-width="0.220372" points="422.35,-365.246 429.356,-357.298 418.923,-359.142 422.35,-365.246"/>
</g>
<!-- 1558&#45;&gt;1658 -->
<g id="edge126" class="edge"><title>1558&#45;&gt;1658</title>
<path fill="none" stroke="red" stroke-width="0.348911" d="M256.769,-411.649C285.791,-371.585 357.491,-280.931 441,-236.693 682.607,-108.706 1023.82,-93.1146 1132.98,-91.5148"/>
<polygon fill="red" stroke="red" stroke-width="0.348911" points="1133.14,-95.0133 1143.1,-91.3979 1133.06,-88.0137 1133.14,-95.0133"/>
</g>
<!-- 1305&#45;&gt;3 -->
<g id="edge104" class="edge"><title>1305&#45;&gt;3</title>
<path fill="none" stroke="green" stroke-width="0.331711" stroke-dasharray="1,5" d="M1159.11,-245.127C1140.57,-230.103 1112.47,-207.319 1093.92,-192.286"/>
<polygon fill="green" stroke="green" stroke-width="0.331711" points="1096.12,-189.558 1086.15,-185.98 1091.71,-194.996 1096.12,-189.558"/>
</g>
<!-- 1701&#45;&gt;89 -->
<g id="edge125" class="edge"><title>1701&#45;&gt;89</title>
<path fill="none" stroke="green" stroke-width="0.393571" d="M1010.36,-496.295C1017.41,-484.519 1026.28,-469.702 1033.64,-457.412"/>
<polygon fill="green" stroke="green" stroke-width="0.393571" points="1036.79,-458.976 1038.92,-448.599 1030.78,-455.38 1036.79,-458.976"/>
</g>
<!-- 1449&#45;&gt;100 -->
<g id="edge110" class="edge"><title>1449&#45;&gt;100</title>
<path fill="none" stroke="red" stroke-width="0.271174" d="M1183.13,-492.784C1182.81,-483.825 1182.44,-473.543 1182.1,-464.082"/>
<polygon fill="red" stroke="red" stroke-width="0.271174" points="1185.59,-463.731 1181.73,-453.863 1178.6,-463.982 1185.59,-463.731"/>
</g>
<!-- 943&#45;&gt;2 -->
<g id="edge97" class="edge"><title>943&#45;&gt;2</title>
<path fill="none" stroke="green" stroke-width="0.4819" d="M1612.18,-333.923C1606.5,-330.03 1600.06,-325.79 1594,-322.191 1562.3,-303.365 1524.02,-284.328 1500.34,-272.956"/>
<polygon fill="green" stroke="green" stroke-width="0.4819" points="1501.68,-269.718 1491.15,-268.575 1498.67,-276.037 1501.68,-269.718"/>
</g>
<!-- 943&#45;&gt;1159 -->
<g id="edge105" class="edge"><title>943&#45;&gt;1159</title>
<path fill="none" stroke="red" stroke-width="0.394917" d="M1628.52,-325.555C1627.85,-297.153 1626.62,-245.306 1625.81,-210.984"/>
<polygon fill="red" stroke="red" stroke-width="0.394917" points="1629.3,-210.855 1625.57,-200.941 1622.31,-211.021 1629.3,-210.855"/>
</g>
<!-- 1464 -->
<g id="node18" class="node"><title>1464</title>
<ellipse fill="white" stroke="black" cx="1451" cy="-346.94" rx="25" ry="25"/>
<text text-anchor="middle" x="1451" y="-344.74" font-family="Times New Roman,serif" font-size="9.00">1464</text>
</g>
<!-- 1464&#45;&gt;2 -->
<g id="edge112" class="edge"><title>1464&#45;&gt;2</title>
<path fill="none" stroke="red" stroke-width="0.540015" d="M1458.38,-323.124C1462.15,-311.472 1466.72,-297.324 1470.5,-285.621"/>
<polygon fill="red" stroke="red" stroke-width="0.540015" points="1473.84,-286.682 1473.59,-276.09 1467.18,-284.528 1473.84,-286.682"/>
</g>
<!-- 1599 -->
<g id="node19" class="node"><title>1599</title>
<ellipse fill="white" stroke="black" cx="1680" cy="-517.935" rx="25" ry="25"/>
<text text-anchor="middle" x="1680" y="-515.735" font-family="Times New Roman,serif" font-size="9.00">1599</text>
</g>
<!-- 1599&#45;&gt;99 -->
<g id="edge119" class="edge"><title>1599&#45;&gt;99</title>
<path fill="none" stroke="green" stroke-width="0.447835" d="M1680,-492.784C1680,-482.846 1680,-471.28 1680,-461.012"/>
<polygon fill="green" stroke="green" stroke-width="0.447835" points="1683.5,-460.904 1680,-450.904 1676.5,-460.904 1683.5,-460.904"/>
</g>
<!-- 1097&#45;&gt;88 -->
<g id="edge100" class="edge"><title>1097&#45;&gt;88</title>
<path fill="none" stroke="green" stroke-width="0.183662" d="M487.444,-411.225C479.369,-399.185 469.087,-383.855 460.666,-371.298"/>
<polygon fill="green" stroke="green" stroke-width="0.183662" points="463.398,-369.088 454.921,-362.732 457.584,-372.987 463.398,-369.088"/>
</g>
<!-- 1748 -->
<g id="node21" class="node"><title>1748</title>
<ellipse fill="white" stroke="black" cx="1003" cy="-261.442" rx="25" ry="25"/>
<text text-anchor="middle" x="1003" y="-259.242" font-family="Times New Roman,serif" font-size="9.00">1748</text>
</g>
<!-- 1748&#45;&gt;3 -->
<g id="edge129" class="edge"><title>1748&#45;&gt;3</title>
<path fill="none" stroke="red" stroke-width="0.110785" d="M1018.98,-241.911C1030.78,-228.225 1046.79,-209.656 1058.68,-195.875"/>
<polygon fill="red" stroke="red" stroke-width="0.110785" points="1061.59,-197.859 1065.47,-188 1056.29,-193.288 1061.59,-197.859"/>
</g>
<!-- 85&#45;&gt;0 -->
<g id="edge47" class="edge"><title>85&#45;&gt;0</title>
<path fill="none" stroke="green" stroke-width="0.11291" stroke-dasharray="1,5" d="M1567.79,-427.001C1588.27,-421.974 1622.95,-413.699 1653,-407.688 1801.01,-378.084 1960,-413.387 1960,-262.442 1960,-262.442 1960,-262.442 1960,-174.945 1960,-49.119 1753.42,-22.6426 1680.29,-17.2118"/>
<polygon fill="green" stroke="green" stroke-width="0.11291" points="1680.34,-13.7074 1670.12,-16.5312 1679.87,-20.6917 1680.34,-13.7074"/>
</g>
<!-- 85&#45;&gt;2 -->
<g id="edge48" class="edge"><title>85&#45;&gt;2</title>
<path fill="none" stroke="red" stroke-width="0.238087" d="M1546.66,-414.199C1542.01,-392.164 1532.48,-353.162 1518,-322.191 1511.32,-307.915 1501.5,-293.188 1493.27,-281.928"/>
<polygon fill="red" stroke="red" stroke-width="0.238087" points="1495.9,-279.602 1487.09,-273.714 1490.3,-283.81 1495.9,-279.602"/>
</g>
<!-- 85&#45;&gt;3 -->
<g id="edge49" class="edge"><title>85&#45;&gt;3</title>
<path fill="none" stroke="red" stroke-width="0.152216" d="M1567.88,-427.603C1593.36,-421.072 1639.21,-405.111 1659,-371.688 1670.21,-352.76 1670.51,-340.937 1659,-322.191 1640.48,-292.043 1619.12,-303.021 1588,-286.191 1549.21,-265.212 1543.71,-251.011 1502,-236.693 1355.46,-186.396 1166.75,-178.373 1099.86,-177.145"/>
<polygon fill="red" stroke="red" stroke-width="0.152216" points="1099.9,-173.646 1089.84,-176.997 1099.79,-180.645 1099.9,-173.646"/>
</g>
<!-- 88&#45;&gt;0 -->
<g id="edge50" class="edge"><title>88&#45;&gt;0</title>
<path fill="none" stroke="green" stroke-width="1.21818" d="M456.828,-332.467C499.652,-284.813 652.858,-123.973 819,-65.6985 974.167,-11.2729 1507.77,-14.1074 1629.94,-15.5056"/>
<polygon fill="green" stroke="green" stroke-width="1.21818" points="1630.12,-19.0079 1640.16,-15.6306 1630.2,-12.0084 1630.12,-19.0079"/>
</g>
<!-- 88&#45;&gt;1 -->
<g id="edge51" class="edge"><title>88&#45;&gt;1</title>
<path fill="none" stroke="red" stroke-width="0.437301" d="M462.328,-340.717C510.074,-326.324 643.612,-286.071 698.245,-269.603"/>
<polygon fill="red" stroke="red" stroke-width="0.437301" points="699.506,-272.878 708.071,-266.641 697.486,-266.176 699.506,-272.878"/>
</g>
<!-- 88&#45;&gt;3 -->
<g id="edge52" class="edge"><title>88&#45;&gt;3</title>
<path fill="none" stroke="red" stroke-width="0.291664" stroke-dasharray="1,5" d="M460.294,-336.551C495.951,-315.126 587.961,-262.493 672,-236.693 810.701,-194.112 985.879,-181.408 1050.02,-178.041"/>
<polygon fill="red" stroke="red" stroke-width="0.291664" points="1050.19,-181.536 1060.01,-177.546 1049.85,-174.545 1050.19,-181.536"/>
</g>
<!-- 89&#45;&gt;0 -->
<g id="edge53" class="edge"><title>89&#45;&gt;0</title>
<path fill="none" stroke="green" stroke-width="0.751377" d="M1061.44,-419.402C1084.84,-398.662 1134.88,-355.233 1180,-322.191 1348.65,-198.688 1565.53,-68.6045 1633.59,-28.4092"/>
<polygon fill="green" stroke="green" stroke-width="0.751377" points="1635.69,-31.2342 1642.53,-23.1424 1632.14,-25.2032 1635.69,-31.2342"/>
</g>
<!-- 89&#45;&gt;1 -->
<g id="edge54" class="edge"><title>89&#45;&gt;1</title>
<path fill="none" stroke="green" stroke-width="0.531148" d="M1034.84,-419.549C1029.36,-415.193 1022.72,-410.618 1016,-407.688 935.608,-372.655 898.683,-414.232 822,-371.688 816.734,-368.767 765.6,-311.591 738.567,-281.151"/>
<polygon fill="green" stroke="green" stroke-width="0.531148" points="740.893,-278.5 731.639,-273.341 735.657,-283.145 740.893,-278.5"/>
</g>
<!-- 89&#45;&gt;2 -->
<g id="edge55" class="edge"><title>89&#45;&gt;2</title>
<path fill="none" stroke="red" stroke-width="0.193382" d="M1061.72,-419.816C1067.16,-415.598 1073.64,-411.048 1080,-407.688 1123.25,-384.848 1139.49,-391.979 1184,-371.688 1224.13,-353.394 1229.4,-339.405 1270,-322.191 1334.01,-295.055 1414.15,-275.932 1453.67,-267.415"/>
<polygon fill="red" stroke="red" stroke-width="0.193382" points="1454.41,-270.836 1463.47,-265.342 1452.96,-263.987 1454.41,-270.836"/>
</g>
<!-- 89&#45;&gt;3 -->
<g id="edge56" class="edge"><title>89&#45;&gt;3</title>
<path fill="none" stroke="green" stroke-width="0.701991" d="M1049.86,-413.945C1054.57,-369.48 1067.03,-252.051 1072.44,-201.101"/>
<polygon fill="green" stroke="green" stroke-width="0.701991" points="1075.93,-201.328 1073.51,-191.014 1068.97,-200.589 1075.93,-201.328"/>
</g>
<!-- 1531 -->
<g id="node33" class="node"><title>1531</title>
<ellipse fill="white" stroke="black" cx="1003" cy="-346.94" rx="25" ry="25"/>
<text text-anchor="middle" x="1003" y="-344.74" font-family="Times New Roman,serif" font-size="9.00">1531</text>
</g>
<!-- 89&#45;&gt;1531 -->
<g id="edge113" class="edge"><title>89&#45;&gt;1531</title>
<path fill="none" stroke="green" stroke-width="0.599377" d="M1039.54,-415.732C1033.84,-405.164 1026.15,-390.889 1019.29,-378.164"/>
<polygon fill="green" stroke="green" stroke-width="0.599377" points="1022.31,-376.39 1014.48,-369.248 1016.15,-379.711 1022.31,-376.39"/>
</g>
<!-- 90&#45;&gt;0 -->
<g id="edge57" class="edge"><title>90&#45;&gt;0</title>
<path fill="none" stroke="red" stroke-width="0.388004" d="M669.737,-329.416C662.172,-306.405 652.698,-264.419 672,-236.693 797.096,-57.0036 920.569,-114.533 1134,-65.6985 1321,-22.9116 1553.9,-16.7934 1629.82,-15.9632"/>
<polygon fill="red" stroke="red" stroke-width="0.388004" points="1629.88,-19.4628 1639.85,-15.8754 1629.82,-12.4631 1629.88,-19.4628"/>
</g>
<!-- 90&#45;&gt;1 -->
<g id="edge58" class="edge"><title>90&#45;&gt;1</title>
<path fill="none" stroke="red" stroke-width="0.265092" d="M684.652,-330.234C691.911,-317.059 702.344,-298.121 710.339,-283.609"/>
<polygon fill="red" stroke="red" stroke-width="0.265092" points="713.423,-285.264 715.183,-274.816 707.292,-281.886 713.423,-285.264"/>
</g>
<!-- 90&#45;&gt;2 -->
<g id="edge59" class="edge"><title>90&#45;&gt;2</title>
<path fill="none" stroke="red" stroke-width="0.15789" d="M694.258,-344.039C799.734,-333.057 1330.66,-277.782 1452.88,-265.057"/>
<polygon fill="red" stroke="red" stroke-width="0.15789" points="1453.52,-268.509 1463.11,-263.993 1452.8,-261.547 1453.52,-268.509"/>
</g>
<!-- 90&#45;&gt;3 -->
<g id="edge60" class="edge"><title>90&#45;&gt;3</title>
<path fill="none" stroke="red" stroke-width="0.194059" d="M673.961,-328.334C672.22,-304.037 673.148,-260.534 698,-236.693 748.708,-188.049 974.118,-178.996 1049.99,-177.322"/>
<polygon fill="red" stroke="red" stroke-width="0.194059" points="1050.13,-180.82 1060.06,-177.124 1049.99,-173.821 1050.13,-180.82"/>
</g>
<!-- 92&#45;&gt;0 -->
<g id="edge61" class="edge"><title>92&#45;&gt;0</title>
<path fill="none" stroke="red" stroke-width="0.381756" stroke-dasharray="1,5" d="M1398.42,-423.586C1410.06,-418.331 1426.18,-411.672 1441,-407.688 1495.42,-393.063 1655.09,-414.267 1692,-371.688 1781.08,-268.925 1734.68,-194.822 1692,-65.6985 1688.01,-53.6329 1679.85,-42.1071 1672.2,-33.1833"/>
<polygon fill="red" stroke="red" stroke-width="0.381756" points="1674.78,-30.8164 1665.46,-25.7787 1669.6,-35.5292 1674.78,-30.8164"/>
</g>
<!-- 92&#45;&gt;1 -->
<g id="edge62" class="edge"><title>92&#45;&gt;1</title>
<path fill="none" stroke="green" stroke-width="0.12687" d="M1368.98,-419.211C1363.52,-414.808 1356.86,-410.29 1350,-407.688 1177.31,-342.177 1102.81,-450.983 936,-371.688 908.324,-358.532 913.747,-338.808 888,-322.191 842.485,-292.816 780.63,-275.512 746.735,-267.62"/>
<polygon fill="green" stroke="green" stroke-width="0.12687" points="747.293,-264.158 736.769,-265.385 745.761,-270.989 747.293,-264.158"/>
</g>
<!-- 92&#45;&gt;2 -->
<g id="edge63" class="edge"><title>92&#45;&gt;2</title>
<path fill="none" stroke="green" stroke-width="0.215108" stroke-dasharray="1,5" d="M1384.87,-414.069C1389.17,-391.552 1398.8,-351.681 1417,-322.191 1427.86,-304.598 1444.99,-288.443 1458.33,-277.379"/>
<polygon fill="green" stroke="green" stroke-width="0.215108" points="1460.83,-279.861 1466.45,-270.88 1456.46,-274.396 1460.83,-279.861"/>
</g>
<!-- 92&#45;&gt;3 -->
<g id="edge64" class="edge"><title>92&#45;&gt;3</title>
<path fill="none" stroke="green" stroke-width="0.169329" stroke-dasharray="1,5" d="M1372.44,-416.512C1349.01,-380.992 1285.32,-290.396 1212,-236.693 1176.39,-210.61 1127.61,-192.809 1098.89,-183.8"/>
<polygon fill="green" stroke="green" stroke-width="0.169329" points="1099.86,-180.438 1089.28,-180.88 1097.83,-187.136 1099.86,-180.438"/>
</g>
<!-- 92&#45;&gt;1464 -->
<g id="edge111" class="edge"><title>92&#45;&gt;1464</title>
<path fill="none" stroke="red" stroke-width="0.315633" d="M1393.39,-417.649C1403.06,-405.956 1417.2,-388.846 1429.05,-374.504"/>
<polygon fill="red" stroke="red" stroke-width="0.315633" points="1432.04,-376.379 1435.71,-366.441 1426.64,-371.92 1432.04,-376.379"/>
</g>
<!-- 1629&#45;&gt;95 -->
<g id="edge121" class="edge"><title>1629&#45;&gt;95</title>
<path fill="none" stroke="red" stroke-width="0.198439" d="M1822.85,-408.178C1825.46,-397.793 1828.55,-385.495 1831.26,-374.727"/>
<polygon fill="red" stroke="red" stroke-width="0.198439" points="1834.67,-375.536 1833.71,-364.984 1827.88,-373.829 1834.67,-375.536"/>
</g>
<!-- 95&#45;&gt;0 -->
<g id="edge65" class="edge"><title>95&#45;&gt;0</title>
<path fill="none" stroke="green" stroke-width="0.166169" d="M1838.63,-328.491C1839.41,-280.617 1835.2,-145.474 1768,-65.6985 1745.4,-38.8654 1705.52,-25.9689 1679.69,-20.1556"/>
<polygon fill="green" stroke="green" stroke-width="0.166169" points="1680.07,-16.6606 1669.57,-18.0778 1678.66,-23.5176 1680.07,-16.6606"/>
</g>
<!-- 95&#45;&gt;2 -->
<g id="edge66" class="edge"><title>95&#45;&gt;2</title>
<path fill="none" stroke="green" stroke-width="0.558542" stroke-dasharray="1,5" d="M1820.15,-341.799C1760.76,-328.024 1569.77,-283.727 1502.07,-268.025"/>
<polygon fill="green" stroke="green" stroke-width="0.558542" points="1502.84,-264.61 1492.3,-265.76 1501.25,-271.429 1502.84,-264.61"/>
</g>
<!-- 95&#45;&gt;3 -->
<g id="edge67" class="edge"><title>95&#45;&gt;3</title>
<path fill="none" stroke="green" stroke-width="0.649083" d="M1824.12,-334.616C1818.65,-330.435 1812.21,-325.832 1806,-322.191 1726.13,-275.327 1705.33,-261.073 1616,-236.693 1422.67,-183.934 1178.39,-177.584 1100.25,-176.958"/>
<polygon fill="green" stroke="green" stroke-width="0.649083" points="1099.97,-173.457 1089.95,-176.903 1099.93,-180.457 1099.97,-173.457"/>
</g>
<!-- 1378&#45;&gt;1 -->
<g id="edge118" class="edge"><title>1378&#45;&gt;1</title>
<path fill="none" stroke="green" stroke-width="0.377781" d="M668.644,-412.276C653.82,-389.973 634.712,-352.348 649,-322.191 659.413,-300.212 682.309,-283.627 699.702,-273.574"/>
<polygon fill="green" stroke="green" stroke-width="0.377781" points="701.586,-276.534 708.684,-268.668 698.23,-270.39 701.586,-276.534"/>
</g>
<!-- 1378&#45;&gt;90 -->
<g id="edge107" class="edge"><title>1378&#45;&gt;90</title>
<path fill="none" stroke="green" stroke-width="0.397438" d="M681.013,-407.733C680.173,-397.714 679.189,-385.977 678.316,-375.568"/>
<polygon fill="green" stroke="green" stroke-width="0.397438" points="681.781,-375.002 677.458,-365.329 674.806,-375.587 681.781,-375.002"/>
</g>
<!-- 99&#45;&gt;0 -->
<g id="edge68" class="edge"><title>99&#45;&gt;0</title>
<path fill="none" stroke="red" stroke-width="0.446615" d="M1697.02,-424.765C1711.05,-419.485 1731.57,-412.262 1750,-407.688 1798.93,-395.547 1941.3,-410.063 1974,-371.688 2062.2,-268.176 2062.43,-169.019 1974,-65.6985 1936.11,-21.4248 1749.33,-16.1854 1680.52,-15.7789"/>
<polygon fill="red" stroke="red" stroke-width="0.446615" points="1680.18,-12.278 1670.17,-15.75 1680.16,-19.278 1680.18,-12.278"/>
</g>
<!-- 99&#45;&gt;2 -->
<g id="edge69" class="edge"><title>99&#45;&gt;2</title>
<path fill="none" stroke="green" stroke-width="0.140177" stroke-dasharray="1,5" d="M1665.67,-420.782C1660.15,-416.683 1653.79,-411.962 1648,-407.688 1626.26,-391.636 1619.94,-388.765 1599,-371.688 1560.93,-340.652 1518.87,-301.492 1495.73,-279.484"/>
<polygon fill="green" stroke="green" stroke-width="0.140177" points="1498.02,-276.831 1488.37,-272.457 1493.18,-281.894 1498.02,-276.831"/>
</g>
<!-- 99&#45;&gt;3 -->
<g id="edge70" class="edge"><title>99&#45;&gt;3</title>
<path fill="none" stroke="red" stroke-width="0.467882" d="M1684.49,-414.531C1689.52,-391.815 1694.92,-350.971 1678,-322.191 1661.85,-294.723 1641.92,-304.72 1616,-286.191 1588.7,-266.681 1589.65,-250.342 1559,-236.693 1475.27,-199.408 1186.97,-182.453 1100.02,-178.11"/>
<polygon fill="red" stroke="red" stroke-width="0.467882" points="1099.94,-174.602 1089.78,-177.611 1099.6,-181.593 1099.94,-174.602"/>
</g>
<!-- 100&#45;&gt;0 -->
<g id="edge71" class="edge"><title>100&#45;&gt;0</title>
<path fill="none" stroke="green" stroke-width="0.207134" stroke-dasharray="1,5" d="M1200.27,-423.264C1213.69,-417.934 1232.13,-411.316 1249,-407.688 1338.42,-388.462 1591.65,-433.568 1659,-371.688 1695.29,-338.345 1678,-311.725 1678,-262.442 1678,-262.442 1678,-262.442 1678,-174.945 1678,-126.264 1667.32,-70.0586 1660.52,-39.1844"/>
<polygon fill="green" stroke="green" stroke-width="0.207134" points="1663.92,-38.3542 1658.3,-29.3741 1657.09,-39.9002 1663.92,-38.3542"/>
</g>
<!-- 100&#45;&gt;1 -->
<g id="edge72" class="edge"><title>100&#45;&gt;1</title>
<path fill="none" stroke="green" stroke-width="0.138591" stroke-dasharray="1,5" d="M1160.35,-426.461C1139.04,-421.407 1104.8,-413.517 1075,-407.688 979.916,-389.091 945.305,-417.623 860,-371.688 833.558,-357.45 836.989,-341.515 814,-322.191 791.676,-303.426 763.141,-285.732 743.814,-274.542"/>
<polygon fill="green" stroke="green" stroke-width="0.138591" points="745.302,-271.362 734.88,-269.453 741.837,-277.444 745.302,-271.362"/>
</g>
<!-- 100&#45;&gt;2 -->
<g id="edge73" class="edge"><title>100&#45;&gt;2</title>
<path fill="none" stroke="green" stroke-width="0.191032" d="M1199.87,-422.334C1223.18,-410.964 1263.94,-390.688 1298,-371.688 1356.69,-338.948 1423.92,-296.888 1457.15,-275.781"/>
<polygon fill="green" stroke="green" stroke-width="0.191032" points="1459.41,-278.497 1465.96,-270.172 1455.64,-272.592 1459.41,-278.497"/>
</g>
<!-- 100&#45;&gt;3 -->
<g id="edge74" class="edge"><title>100&#45;&gt;3</title>
<path fill="none" stroke="green" stroke-width="0.470181" d="M1173.03,-412.309C1153.79,-366.119 1104.88,-248.673 1084.32,-199.323"/>
<polygon fill="green" stroke="green" stroke-width="0.470181" points="1087.46,-197.762 1080.39,-189.876 1081,-200.453 1087.46,-197.762"/>
</g>
<!-- 1658&#45;&gt;0 -->
<g id="edge123" class="edge"><title>1658&#45;&gt;0</title>
<path fill="none" stroke="green" stroke-width="0.873796" d="M1192.47,-84.7997C1219.11,-79.8034 1263.01,-71.7624 1301,-65.6985 1424.22,-46.0289 1572.23,-26.5096 1630.1,-19.0354"/>
<polygon fill="green" stroke="green" stroke-width="0.873796" points="1630.66,-22.4918 1640.13,-17.7436 1629.77,-15.5491 1630.66,-22.4918"/>
</g>
<!-- 1531&#45;&gt;3 -->
<g id="edge114" class="edge"><title>1531&#45;&gt;3</title>
<path fill="none" stroke="red" stroke-width="0.220238" stroke-dasharray="1,5" d="M988.021,-326.706C972.307,-304.004 952.065,-265.679 969,-236.693 986.515,-206.715 1025.23,-190.602 1050.71,-182.908"/>
<polygon fill="red" stroke="red" stroke-width="0.220238" points="1051.71,-186.262 1060.39,-180.193 1049.82,-179.522 1051.71,-186.262"/>
</g>
<!-- 1531&#45;&gt;1748 -->
<g id="edge128" class="edge"><title>1531&#45;&gt;1748</title>
<path fill="none" stroke="green" stroke-width="0.247798" d="M1003,-321.789C1003,-313.845 1003,-304.86 1003,-296.33"/>
<polygon fill="green" stroke="green" stroke-width="0.247798" points="1006.5,-296.25 1003,-286.25 999.5,-296.251 1006.5,-296.25"/>
</g>
</g>
</svg>
